<?xml version="1.0" encoding="UTF-8"?>
<svg xmlns="http://www.w3.org/2000/svg" xmlns:xlink="http://www.w3.org/1999/xlink" width="100px" height="100px" viewBox="0 0 100 100" version="1.1">
<g id="surface1">
<path style=" stroke:none;fill-rule:nonzero;fill:rgb(0%,0%,0%);fill-opacity:1;" d="M 10.441406 10.035156 C 10.289062 10.078125 10.078125 10.304688 10.035156 10.460938 C 10.011719 10.554688 10.003906 13.835938 10.007812 21.273438 L 10.015625 31.953125 L 10.105469 32.089844 C 10.15625 32.164062 10.253906 32.261719 10.324219 32.304688 L 10.449219 32.382812 L 31.953125 32.382812 L 32.089844 32.292969 C 32.164062 32.242188 32.261719 32.148438 32.304688 32.078125 L 32.382812 31.949219 L 32.382812 10.449219 L 32.304688 10.324219 C 32.261719 10.253906 32.164062 10.15625 32.089844 10.105469 L 31.953125 10.015625 L 21.253906 10.011719 C 14.5625 10.007812 10.511719 10.015625 10.441406 10.035156 Z M 29.003906 13.257812 C 29.214844 13.382812 29.199219 12.769531 29.199219 21.199219 C 29.199219 28.121094 29.191406 28.882812 29.148438 28.984375 C 29.035156 29.214844 29.707031 29.199219 21.199219 29.199219 C 12.769531 29.199219 13.382812 29.214844 13.257812 29.003906 C 13.203125 28.914062 13.199219 28.402344 13.199219 21.199219 C 13.199219 14.148438 13.203125 13.488281 13.253906 13.402344 C 13.285156 13.351562 13.347656 13.285156 13.398438 13.257812 C 13.476562 13.207031 14.125 13.203125 21.191406 13.199219 C 28.402344 13.199219 28.914062 13.203125 29.003906 13.257812 Z M 29.003906 13.257812 "/>
<path style=" stroke:none;fill-rule:nonzero;fill:rgb(0%,0%,0%);fill-opacity:1;" d="M 16.855469 16.433594 C 16.703125 16.480469 16.546875 16.621094 16.46875 16.777344 L 16.398438 16.921875 L 16.40625 21.238281 L 16.417969 25.550781 L 16.496094 25.675781 C 16.539062 25.746094 16.636719 25.84375 16.710938 25.894531 L 16.847656 25.984375 L 21.148438 25.992188 L 25.457031 26 L 25.636719 25.90625 C 25.78125 25.832031 25.832031 25.78125 25.90625 25.636719 L 26 25.460938 L 26 16.941406 L 25.90625 16.761719 C 25.832031 16.621094 25.78125 16.566406 25.636719 16.492188 L 25.460938 16.398438 L 21.203125 16.402344 C 18.863281 16.402344 16.90625 16.421875 16.855469 16.433594 Z M 16.855469 16.433594 "/>
<path style=" stroke:none;fill-rule:nonzero;fill:rgb(0%,0%,0%);fill-opacity:1;" d="M 42.417969 10.0625 C 42.238281 10.144531 42.140625 10.246094 42.0625 10.414062 C 42.007812 10.535156 42 10.648438 42 11.601562 C 42 12.554688 42.007812 12.664062 42.0625 12.785156 C 42.140625 12.953125 42.238281 13.058594 42.417969 13.136719 C 42.535156 13.191406 42.648438 13.199219 43.601562 13.199219 C 44.554688 13.199219 44.664062 13.191406 44.785156 13.136719 C 44.953125 13.058594 45.058594 12.960938 45.136719 12.785156 C 45.191406 12.664062 45.199219 12.554688 45.199219 11.597656 L 45.199219 10.539062 L 45.105469 10.363281 C 45.035156 10.21875 44.980469 10.167969 44.835938 10.09375 L 44.660156 10 L 43.601562 10 C 42.648438 10 42.535156 10.007812 42.417969 10.0625 Z M 42.417969 10.0625 "/>
<path style=" stroke:none;fill-rule:nonzero;fill:rgb(0%,0%,0%);fill-opacity:1;" d="M 58.417969 10.0625 C 58.238281 10.144531 58.140625 10.246094 58.0625 10.414062 C 58.007812 10.535156 58 10.648438 58 11.601562 C 58 12.554688 58.007812 12.664062 58.0625 12.785156 C 58.140625 12.953125 58.238281 13.058594 58.417969 13.136719 C 58.535156 13.191406 58.648438 13.199219 59.601562 13.199219 C 60.554688 13.199219 60.664062 13.191406 60.785156 13.136719 C 60.953125 13.058594 61.058594 12.960938 61.136719 12.785156 C 61.191406 12.664062 61.199219 12.554688 61.199219 11.597656 L 61.199219 10.539062 L 61.105469 10.363281 C 61.035156 10.21875 60.980469 10.167969 60.835938 10.09375 L 60.660156 10 L 59.601562 10 C 58.648438 10 58.535156 10.007812 58.417969 10.0625 Z M 58.417969 10.0625 "/>
<path style=" stroke:none;fill-rule:nonzero;fill:rgb(0%,0%,0%);fill-opacity:1;" d="M 68.039062 10.035156 C 67.890625 10.078125 67.675781 10.304688 67.632812 10.460938 C 67.609375 10.554688 67.601562 13.835938 67.605469 21.273438 L 67.617188 31.953125 L 67.707031 32.089844 C 67.757812 32.164062 67.851562 32.261719 67.921875 32.304688 L 68.050781 32.382812 L 89.554688 32.382812 L 89.691406 32.292969 C 89.761719 32.242188 89.859375 32.148438 89.902344 32.078125 L 89.984375 31.949219 L 89.984375 10.449219 L 89.902344 10.324219 C 89.859375 10.253906 89.761719 10.15625 89.691406 10.105469 L 89.554688 10.015625 L 78.851562 10.011719 C 72.164062 10.007812 68.109375 10.015625 68.039062 10.035156 Z M 86.601562 13.257812 C 86.816406 13.382812 86.800781 12.769531 86.800781 21.199219 C 86.800781 29.707031 86.816406 29.035156 86.582031 29.148438 C 86.484375 29.191406 85.71875 29.199219 78.800781 29.199219 C 70.371094 29.199219 70.984375 29.214844 70.855469 29.003906 C 70.804688 28.914062 70.800781 28.402344 70.800781 21.199219 C 70.800781 14.148438 70.804688 13.488281 70.851562 13.402344 C 70.882812 13.351562 70.945312 13.285156 70.996094 13.257812 C 71.078125 13.207031 71.722656 13.203125 78.792969 13.199219 C 86.003906 13.199219 86.511719 13.203125 86.601562 13.257812 Z M 86.601562 13.257812 "/>
<path style=" stroke:none;fill-rule:nonzero;fill:rgb(0%,0%,0%);fill-opacity:1;" d="M 74.457031 16.433594 C 74.304688 16.480469 74.148438 16.621094 74.070312 16.777344 L 74 16.921875 L 74.007812 21.238281 L 74.015625 25.550781 L 74.097656 25.675781 C 74.140625 25.746094 74.238281 25.84375 74.308594 25.894531 L 74.445312 25.984375 L 78.75 25.992188 L 83.058594 26 L 83.238281 25.90625 C 83.378906 25.832031 83.433594 25.78125 83.507812 25.636719 L 83.601562 25.460938 L 83.601562 16.941406 L 83.507812 16.761719 C 83.433594 16.621094 83.378906 16.566406 83.238281 16.492188 L 83.058594 16.398438 L 78.804688 16.402344 C 76.464844 16.402344 74.507812 16.421875 74.457031 16.433594 Z M 74.457031 16.433594 "/>
<path style=" stroke:none;fill-rule:nonzero;fill:rgb(0%,0%,0%);fill-opacity:1;" d="M 39.214844 13.261719 C 39.039062 13.34375 38.941406 13.445312 38.863281 13.613281 C 38.808594 13.738281 38.800781 13.847656 38.800781 14.800781 C 38.800781 15.753906 38.808594 15.863281 38.863281 15.988281 C 38.941406 16.152344 39.039062 16.257812 39.214844 16.335938 C 39.335938 16.394531 39.445312 16.398438 40.398438 16.398438 C 41.351562 16.398438 41.464844 16.394531 41.585938 16.335938 C 41.753906 16.261719 41.855469 16.160156 41.9375 15.984375 C 41.992188 15.863281 42 15.753906 42 14.796875 L 42 13.738281 L 41.90625 13.5625 C 41.832031 13.421875 41.78125 13.367188 41.636719 13.292969 L 41.460938 13.199219 L 40.402344 13.199219 C 39.445312 13.199219 39.335938 13.207031 39.214844 13.261719 Z M 39.214844 13.261719 "/>
<path style=" stroke:none;fill-rule:nonzero;fill:rgb(0%,0%,0%);fill-opacity:1;" d="M 55.214844 13.261719 C 55.039062 13.34375 54.941406 13.445312 54.863281 13.613281 C 54.804688 13.742188 54.800781 13.886719 54.800781 16.398438 C 54.800781 18.914062 54.804688 19.058594 54.863281 19.1875 C 54.941406 19.351562 55.039062 19.457031 55.214844 19.535156 C 55.335938 19.59375 55.445312 19.601562 56.402344 19.601562 L 57.460938 19.601562 L 57.636719 19.691406 C 57.78125 19.765625 57.832031 19.820312 57.90625 19.964844 L 58 20.140625 L 58 21.195312 C 58 22.152344 58.007812 22.261719 58.0625 22.386719 C 58.140625 22.554688 58.238281 22.65625 58.417969 22.738281 C 58.542969 22.796875 58.6875 22.800781 61.199219 22.800781 C 63.714844 22.800781 63.855469 22.796875 63.988281 22.738281 C 64.152344 22.660156 64.257812 22.558594 64.335938 22.382812 C 64.398438 22.257812 64.398438 22.109375 64.398438 19.597656 L 64.398438 16.941406 L 64.308594 16.761719 C 64.234375 16.621094 64.179688 16.566406 64.035156 16.492188 L 63.859375 16.398438 L 61.203125 16.398438 C 58.691406 16.398438 58.542969 16.398438 58.417969 16.335938 C 58.238281 16.257812 58.140625 16.152344 58.0625 15.988281 C 58.007812 15.863281 58 15.753906 58 14.796875 L 58 13.738281 L 57.90625 13.5625 C 57.832031 13.421875 57.78125 13.367188 57.636719 13.292969 L 57.460938 13.199219 L 56.402344 13.199219 C 55.445312 13.199219 55.335938 13.207031 55.214844 13.261719 Z M 55.214844 13.261719 "/>
<path style=" stroke:none;fill-rule:nonzero;fill:rgb(0%,0%,0%);fill-opacity:1;" d="M 36.015625 16.464844 C 35.839844 16.542969 35.738281 16.648438 35.664062 16.8125 C 35.605469 16.9375 35.601562 17.046875 35.601562 18 C 35.601562 18.953125 35.605469 19.0625 35.664062 19.1875 C 35.738281 19.351562 35.839844 19.457031 36.015625 19.535156 C 36.136719 19.59375 36.246094 19.601562 37.199219 19.601562 C 38.152344 19.601562 38.261719 19.59375 38.386719 19.535156 C 38.554688 19.460938 38.65625 19.359375 38.738281 19.183594 C 38.792969 19.0625 38.800781 18.953125 38.800781 17.996094 L 38.800781 16.941406 L 38.707031 16.761719 C 38.632812 16.621094 38.578125 16.566406 38.4375 16.492188 L 38.261719 16.398438 L 37.203125 16.398438 C 36.246094 16.398438 36.136719 16.40625 36.015625 16.464844 Z M 36.015625 16.464844 "/>
<path style=" stroke:none;fill-rule:nonzero;fill:rgb(0%,0%,0%);fill-opacity:1;" d="M 45.617188 16.464844 C 45.441406 16.542969 45.339844 16.648438 45.261719 16.8125 C 45.207031 16.9375 45.199219 17.046875 45.199219 18 C 45.199219 18.953125 45.207031 19.0625 45.261719 19.1875 C 45.339844 19.351562 45.441406 19.457031 45.617188 19.535156 C 45.738281 19.59375 45.847656 19.601562 46.800781 19.601562 C 47.753906 19.601562 47.863281 19.59375 47.988281 19.535156 C 48.152344 19.460938 48.257812 19.359375 48.335938 19.183594 C 48.394531 19.0625 48.398438 18.953125 48.398438 17.996094 L 48.398438 16.941406 L 48.308594 16.761719 C 48.234375 16.621094 48.179688 16.566406 48.035156 16.492188 L 47.859375 16.398438 L 46.804688 16.398438 C 45.847656 16.398438 45.738281 16.40625 45.617188 16.464844 Z M 45.617188 16.464844 "/>
<path style=" stroke:none;fill-rule:nonzero;fill:rgb(0%,0%,0%);fill-opacity:1;" d="M 39.214844 19.664062 C 39.039062 19.742188 38.941406 19.847656 38.863281 20.011719 C 38.804688 20.144531 38.800781 20.285156 38.800781 22.800781 C 38.800781 25.3125 38.804688 25.457031 38.863281 25.585938 C 38.941406 25.753906 39.039062 25.855469 39.214844 25.9375 C 39.335938 25.992188 39.445312 26 40.398438 26 C 41.351562 26 41.464844 25.992188 41.585938 25.9375 C 41.753906 25.859375 41.855469 25.761719 41.9375 25.582031 C 41.996094 25.457031 42 25.308594 42 22.796875 L 42 20.140625 L 41.90625 19.964844 C 41.832031 19.820312 41.78125 19.765625 41.636719 19.691406 L 41.460938 19.601562 L 40.402344 19.601562 C 39.445312 19.601562 39.335938 19.605469 39.214844 19.664062 Z M 39.214844 19.664062 "/>
<path style=" stroke:none;fill-rule:nonzero;fill:rgb(0%,0%,0%);fill-opacity:1;" d="M 48.816406 19.664062 C 48.640625 19.742188 48.539062 19.847656 48.464844 20.011719 C 48.402344 20.144531 48.398438 20.285156 48.398438 22.800781 C 48.398438 25.308594 48.398438 25.457031 48.335938 25.582031 C 48.257812 25.761719 48.152344 25.859375 47.988281 25.9375 C 47.855469 25.996094 47.714844 26 45.199219 26 C 42.691406 26 42.542969 26.003906 42.417969 26.0625 C 42.238281 26.144531 42.140625 26.246094 42.0625 26.414062 C 42.003906 26.542969 42 26.6875 42 29.199219 C 42 31.714844 42.003906 31.855469 42.0625 31.988281 C 42.140625 32.152344 42.238281 32.257812 42.417969 32.335938 C 42.535156 32.394531 42.648438 32.398438 43.601562 32.398438 C 44.554688 32.398438 44.664062 32.394531 44.785156 32.335938 C 44.953125 32.261719 45.058594 32.160156 45.136719 31.984375 C 45.191406 31.863281 45.199219 31.75 45.199219 30.800781 C 45.199219 29.851562 45.207031 29.738281 45.261719 29.613281 C 45.339844 29.445312 45.441406 29.34375 45.617188 29.261719 C 45.738281 29.207031 45.847656 29.199219 46.804688 29.199219 L 47.859375 29.199219 L 48.035156 29.292969 C 48.179688 29.367188 48.234375 29.421875 48.308594 29.5625 L 48.398438 29.738281 L 48.398438 30.796875 C 48.398438 31.753906 48.40625 31.863281 48.464844 31.988281 C 48.539062 32.152344 48.640625 32.257812 48.816406 32.335938 C 48.9375 32.394531 49.046875 32.398438 50 32.398438 C 50.953125 32.398438 51.0625 32.394531 51.1875 32.335938 C 51.351562 32.261719 51.457031 32.160156 51.535156 31.984375 C 51.597656 31.855469 51.601562 31.628906 51.601562 25.996094 L 51.601562 20.140625 L 51.507812 19.964844 C 51.433594 19.820312 51.378906 19.765625 51.238281 19.691406 L 51.058594 19.601562 L 50.003906 19.601562 C 49.046875 19.601562 48.9375 19.605469 48.816406 19.664062 Z M 48.816406 19.664062 "/>
<path style=" stroke:none;fill-rule:nonzero;fill:rgb(0%,0%,0%);fill-opacity:1;" d="M 55.214844 22.863281 C 55.039062 22.941406 54.941406 23.046875 54.863281 23.214844 C 54.804688 23.34375 54.800781 23.523438 54.800781 27.601562 C 54.800781 31.675781 54.804688 31.855469 54.863281 31.988281 C 54.941406 32.152344 55.039062 32.257812 55.214844 32.335938 C 55.335938 32.394531 55.445312 32.398438 56.398438 32.398438 C 57.351562 32.398438 57.464844 32.394531 57.585938 32.335938 C 57.753906 32.261719 57.855469 32.160156 57.9375 31.984375 C 57.992188 31.863281 58 31.75 58 30.800781 C 58 29.851562 58.007812 29.738281 58.0625 29.613281 C 58.140625 29.445312 58.238281 29.34375 58.417969 29.261719 C 58.535156 29.207031 58.648438 29.199219 59.601562 29.199219 C 60.550781 29.199219 60.664062 29.191406 60.785156 29.136719 C 60.953125 29.058594 61.058594 28.960938 61.136719 28.785156 C 61.191406 28.664062 61.199219 28.554688 61.199219 27.597656 L 61.199219 26.539062 L 61.105469 26.363281 C 61.035156 26.21875 60.980469 26.167969 60.835938 26.09375 L 60.660156 26 L 59.601562 26 C 58.648438 26 58.535156 25.992188 58.417969 25.9375 C 58.238281 25.855469 58.140625 25.753906 58.0625 25.585938 C 58.007812 25.464844 58 25.351562 58 24.398438 L 58 23.339844 L 57.90625 23.164062 C 57.832031 23.019531 57.78125 22.964844 57.636719 22.894531 L 57.460938 22.800781 L 56.402344 22.800781 C 55.445312 22.800781 55.335938 22.808594 55.214844 22.863281 Z M 55.214844 22.863281 "/>
<path style=" stroke:none;fill-rule:nonzero;fill:rgb(0%,0%,0%);fill-opacity:1;" d="M 36.015625 29.261719 C 35.839844 29.34375 35.738281 29.445312 35.664062 29.613281 C 35.601562 29.742188 35.601562 29.886719 35.601562 32.398438 C 35.601562 34.910156 35.597656 35.058594 35.535156 35.183594 C 35.457031 35.359375 35.351562 35.460938 35.1875 35.535156 C 35.058594 35.597656 34.835938 35.601562 29.199219 35.601562 C 23.570312 35.601562 23.34375 35.601562 23.214844 35.664062 C 23.039062 35.742188 22.941406 35.847656 22.863281 36.011719 C 22.808594 36.136719 22.800781 36.25 22.800781 37.199219 C 22.800781 38.148438 22.792969 38.261719 22.738281 38.382812 C 22.65625 38.558594 22.554688 38.660156 22.386719 38.738281 C 22.261719 38.792969 22.148438 38.800781 21.199219 38.800781 C 20.25 38.800781 20.136719 38.808594 20.015625 38.863281 C 19.839844 38.941406 19.738281 39.046875 19.664062 39.214844 C 19.605469 39.335938 19.601562 39.445312 19.601562 40.398438 C 19.601562 41.351562 19.605469 41.464844 19.664062 41.585938 C 19.738281 41.753906 19.839844 41.855469 20.015625 41.9375 C 20.144531 41.996094 20.289062 42 22.804688 42 L 25.460938 42 L 25.636719 42.09375 C 25.78125 42.167969 25.832031 42.21875 25.90625 42.363281 L 26 42.539062 L 26 43.597656 C 26 44.554688 25.992188 44.664062 25.9375 44.785156 C 25.855469 44.960938 25.753906 45.058594 25.585938 45.136719 C 25.457031 45.195312 25.3125 45.199219 22.800781 45.199219 C 20.289062 45.199219 20.144531 45.203125 20.015625 45.261719 C 19.839844 45.34375 19.738281 45.445312 19.664062 45.613281 C 19.605469 45.738281 19.601562 45.847656 19.601562 46.800781 C 19.601562 47.753906 19.605469 47.863281 19.664062 47.988281 C 19.738281 48.152344 19.839844 48.257812 20.015625 48.335938 C 20.136719 48.394531 20.246094 48.398438 21.203125 48.398438 L 22.261719 48.398438 L 22.4375 48.492188 C 22.578125 48.566406 22.632812 48.621094 22.707031 48.761719 L 22.800781 48.941406 L 22.800781 49.996094 C 22.800781 50.953125 22.808594 51.0625 22.863281 51.1875 C 22.941406 51.351562 23.039062 51.457031 23.214844 51.535156 C 23.335938 51.59375 23.445312 51.601562 24.402344 51.601562 L 25.460938 51.601562 L 25.636719 51.691406 C 25.78125 51.765625 25.832031 51.820312 25.90625 51.964844 L 26 52.140625 L 26 53.195312 C 26 54.152344 26.007812 54.261719 26.0625 54.386719 C 26.140625 54.554688 26.238281 54.65625 26.417969 54.738281 C 26.535156 54.792969 26.648438 54.800781 27.601562 54.800781 C 28.554688 54.800781 28.664062 54.792969 28.785156 54.738281 C 28.953125 54.660156 29.058594 54.558594 29.136719 54.382812 C 29.191406 54.261719 29.199219 54.148438 29.199219 53.199219 C 29.199219 52.25 29.207031 52.136719 29.261719 52.011719 C 29.339844 51.847656 29.441406 51.742188 29.617188 51.664062 C 29.742188 51.601562 29.890625 51.601562 32.398438 51.601562 C 34.914062 51.601562 35.058594 51.597656 35.1875 51.535156 C 35.351562 51.460938 35.457031 51.359375 35.535156 51.183594 C 35.59375 51.0625 35.601562 50.953125 35.601562 49.996094 L 35.601562 48.941406 L 35.507812 48.761719 C 35.433594 48.621094 35.378906 48.566406 35.238281 48.492188 L 35.058594 48.398438 L 32.402344 48.398438 C 29.890625 48.398438 29.742188 48.398438 29.617188 48.335938 C 29.441406 48.257812 29.339844 48.152344 29.261719 47.988281 C 29.207031 47.863281 29.199219 47.753906 29.199219 46.800781 C 29.199219 45.847656 29.207031 45.738281 29.261719 45.613281 C 29.339844 45.445312 29.441406 45.34375 29.617188 45.261719 C 29.738281 45.207031 29.851562 45.199219 30.800781 45.199219 C 31.75 45.199219 31.863281 45.191406 31.988281 45.136719 C 32.152344 45.058594 32.257812 44.960938 32.335938 44.785156 C 32.394531 44.664062 32.398438 44.554688 32.398438 43.597656 L 32.398438 42.539062 L 32.308594 42.363281 C 32.234375 42.21875 32.179688 42.167969 32.035156 42.09375 L 31.859375 42 L 30.804688 42 C 29.847656 42 29.738281 41.992188 29.617188 41.9375 C 29.441406 41.855469 29.339844 41.753906 29.261719 41.585938 C 29.207031 41.464844 29.199219 41.351562 29.199219 40.398438 C 29.199219 39.445312 29.207031 39.335938 29.261719 39.214844 C 29.339844 39.046875 29.441406 38.941406 29.617188 38.863281 C 29.742188 38.804688 29.890625 38.800781 32.402344 38.800781 L 35.058594 38.800781 L 35.238281 38.894531 C 35.378906 38.964844 35.433594 39.019531 35.507812 39.164062 L 35.601562 39.339844 L 35.601562 40.398438 C 35.601562 41.351562 35.605469 41.464844 35.664062 41.585938 C 35.738281 41.753906 35.839844 41.855469 36.015625 41.9375 C 36.144531 41.996094 36.285156 42 38.800781 42 C 41.3125 42 41.457031 41.996094 41.585938 41.9375 C 41.753906 41.859375 41.855469 41.761719 41.9375 41.582031 C 41.992188 41.464844 42 41.351562 42 40.398438 L 42 39.339844 L 41.90625 39.164062 C 41.832031 39.019531 41.78125 38.964844 41.636719 38.894531 L 41.460938 38.800781 L 40.402344 38.800781 C 39.445312 38.800781 39.335938 38.792969 39.214844 38.738281 C 39.039062 38.65625 38.941406 38.554688 38.863281 38.386719 C 38.804688 38.257812 38.800781 38.074219 38.800781 33.996094 L 38.800781 29.738281 L 38.707031 29.5625 C 38.632812 29.421875 38.578125 29.367188 38.4375 29.292969 L 38.261719 29.199219 L 37.203125 29.199219 C 36.246094 29.199219 36.136719 29.207031 36.015625 29.261719 Z M 36.015625 29.261719 "/>
<path style=" stroke:none;fill-rule:nonzero;fill:rgb(0%,0%,0%);fill-opacity:1;" d="M 61.617188 29.261719 C 61.441406 29.34375 61.339844 29.445312 61.261719 29.613281 C 61.203125 29.742188 61.199219 29.925781 61.199219 34 C 61.199219 38.070312 61.195312 38.257812 61.136719 38.382812 C 61.058594 38.558594 60.953125 38.660156 60.785156 38.738281 C 60.65625 38.796875 60.476562 38.800781 56.398438 38.800781 C 52.328125 38.800781 52.144531 38.796875 52.015625 38.738281 C 51.839844 38.65625 51.738281 38.554688 51.664062 38.386719 C 51.605469 38.261719 51.601562 38.152344 51.601562 37.195312 L 51.601562 36.140625 L 51.507812 35.964844 C 51.433594 35.820312 51.378906 35.765625 51.238281 35.691406 L 51.058594 35.601562 L 50.003906 35.601562 C 49.046875 35.601562 48.9375 35.605469 48.816406 35.664062 C 48.640625 35.742188 48.539062 35.847656 48.464844 36.011719 C 48.40625 36.136719 48.398438 36.25 48.398438 37.199219 C 48.398438 38.148438 48.394531 38.261719 48.335938 38.382812 C 48.257812 38.558594 48.152344 38.660156 47.988281 38.738281 C 47.863281 38.792969 47.75 38.800781 46.800781 38.800781 C 45.851562 38.800781 45.738281 38.808594 45.617188 38.863281 C 45.441406 38.941406 45.339844 39.046875 45.261719 39.214844 C 45.207031 39.335938 45.199219 39.449219 45.199219 40.398438 C 45.199219 41.351562 45.191406 41.464844 45.136719 41.582031 C 45.058594 41.761719 44.953125 41.859375 44.785156 41.9375 C 44.664062 41.992188 44.550781 42 43.601562 42 C 42.648438 42 42.535156 42.007812 42.417969 42.0625 C 42.238281 42.144531 42.140625 42.246094 42.0625 42.414062 C 42.007812 42.535156 42 42.648438 42 43.601562 C 42 44.550781 41.992188 44.664062 41.9375 44.785156 C 41.855469 44.960938 41.753906 45.058594 41.585938 45.136719 C 41.457031 45.195312 41.3125 45.199219 38.800781 45.199219 C 36.289062 45.199219 36.144531 45.203125 36.015625 45.261719 C 35.839844 45.34375 35.738281 45.445312 35.664062 45.613281 C 35.605469 45.738281 35.601562 45.847656 35.601562 46.800781 C 35.601562 47.753906 35.605469 47.863281 35.664062 47.988281 C 35.738281 48.152344 35.839844 48.257812 36.015625 48.335938 C 36.144531 48.398438 36.289062 48.398438 38.804688 48.398438 L 41.460938 48.398438 L 41.636719 48.492188 C 41.78125 48.566406 41.832031 48.621094 41.90625 48.761719 L 42 48.941406 L 42 51.597656 C 42 54.113281 42.003906 54.257812 42.0625 54.386719 C 42.140625 54.554688 42.238281 54.65625 42.417969 54.738281 C 42.542969 54.796875 42.6875 54.800781 45.199219 54.800781 C 47.714844 54.800781 47.855469 54.796875 47.988281 54.738281 C 48.152344 54.660156 48.257812 54.558594 48.335938 54.382812 C 48.398438 54.257812 48.398438 54.109375 48.398438 51.597656 L 48.398438 48.941406 L 48.308594 48.761719 C 48.234375 48.621094 48.179688 48.566406 48.035156 48.492188 L 47.859375 48.398438 L 46.804688 48.398438 C 45.847656 48.398438 45.738281 48.394531 45.617188 48.335938 C 45.441406 48.257812 45.339844 48.152344 45.261719 47.988281 C 45.207031 47.863281 45.199219 47.753906 45.199219 46.800781 C 45.199219 45.847656 45.207031 45.738281 45.261719 45.613281 C 45.339844 45.445312 45.441406 45.34375 45.617188 45.261719 C 45.738281 45.207031 45.847656 45.199219 46.804688 45.199219 L 47.859375 45.199219 L 48.035156 45.292969 C 48.179688 45.367188 48.234375 45.421875 48.308594 45.5625 L 48.398438 45.738281 L 48.398438 46.796875 C 48.398438 47.753906 48.40625 47.863281 48.464844 47.988281 C 48.539062 48.152344 48.640625 48.257812 48.816406 48.335938 C 48.941406 48.398438 49.085938 48.398438 51.601562 48.398438 C 54.113281 48.398438 54.257812 48.398438 54.386719 48.335938 C 54.554688 48.261719 54.65625 48.160156 54.738281 47.984375 C 54.792969 47.863281 54.800781 47.753906 54.800781 46.796875 L 54.800781 45.738281 L 54.707031 45.5625 C 54.632812 45.421875 54.578125 45.367188 54.4375 45.292969 L 54.261719 45.199219 L 53.203125 45.199219 C 52.246094 45.199219 52.136719 45.191406 52.015625 45.136719 C 51.839844 45.058594 51.738281 44.953125 51.664062 44.785156 C 51.605469 44.664062 51.601562 44.554688 51.601562 43.601562 C 51.601562 42.648438 51.605469 42.535156 51.664062 42.414062 C 51.738281 42.246094 51.839844 42.144531 52.015625 42.0625 C 52.144531 42.003906 52.328125 42 56.402344 42 L 60.660156 42 L 60.835938 42.09375 C 60.980469 42.167969 61.035156 42.21875 61.105469 42.363281 L 61.199219 42.539062 L 61.199219 48.398438 C 61.199219 54.03125 61.195312 54.257812 61.136719 54.382812 C 61.058594 54.558594 60.953125 54.660156 60.785156 54.738281 C 60.664062 54.792969 60.550781 54.800781 59.601562 54.800781 C 58.648438 54.800781 58.535156 54.808594 58.417969 54.863281 C 58.238281 54.941406 58.140625 55.046875 58.0625 55.214844 C 58.007812 55.335938 58 55.445312 58 56.398438 C 58 57.351562 58.007812 57.464844 58.0625 57.585938 C 58.140625 57.753906 58.238281 57.855469 58.417969 57.9375 C 58.542969 57.996094 58.730469 58 62.804688 58 L 67.058594 58 L 67.238281 58.09375 C 67.378906 58.167969 67.433594 58.21875 67.507812 58.363281 L 67.601562 58.539062 L 67.601562 59.597656 C 67.601562 60.554688 67.59375 60.664062 67.535156 60.785156 C 67.457031 60.960938 67.351562 61.058594 67.1875 61.136719 C 67.058594 61.195312 66.914062 61.199219 64.398438 61.199219 C 61.890625 61.199219 61.742188 61.203125 61.617188 61.261719 C 61.441406 61.34375 61.339844 61.445312 61.261719 61.613281 C 61.203125 61.742188 61.199219 61.886719 61.199219 64.398438 C 61.199219 66.910156 61.195312 67.058594 61.136719 67.183594 C 61.058594 67.359375 60.953125 67.460938 60.785156 67.535156 C 60.664062 67.59375 60.550781 67.601562 59.601562 67.601562 C 58.648438 67.601562 58.535156 67.605469 58.417969 67.664062 C 58.238281 67.742188 58.140625 67.847656 58.0625 68.011719 C 58.007812 68.136719 58 68.246094 58 69.199219 C 58 70.152344 58.007812 70.261719 58.0625 70.386719 C 58.140625 70.554688 58.238281 70.65625 58.417969 70.738281 C 58.535156 70.792969 58.648438 70.800781 59.601562 70.800781 L 60.660156 70.800781 L 60.835938 70.894531 C 60.980469 70.964844 61.035156 71.019531 61.105469 71.164062 L 61.199219 71.339844 L 61.199219 72.398438 C 61.199219 73.351562 61.191406 73.464844 61.136719 73.582031 C 61.058594 73.761719 60.953125 73.859375 60.785156 73.9375 C 60.664062 73.992188 60.550781 74 59.601562 74 C 58.648438 74 58.535156 74.007812 58.417969 74.0625 C 58.238281 74.144531 58.140625 74.246094 58.0625 74.414062 C 58.007812 74.535156 58 74.648438 58 75.601562 C 58 76.550781 57.992188 76.664062 57.9375 76.785156 C 57.855469 76.960938 57.753906 77.058594 57.585938 77.136719 C 57.464844 77.191406 57.351562 77.199219 56.398438 77.199219 C 55.445312 77.199219 55.335938 77.191406 55.214844 77.136719 C 55.039062 77.058594 54.941406 76.953125 54.863281 76.785156 C 54.808594 76.664062 54.800781 76.554688 54.800781 75.597656 L 54.800781 74.539062 L 54.707031 74.363281 C 54.632812 74.21875 54.578125 74.167969 54.4375 74.09375 L 54.261719 74 L 53.203125 74 C 52.246094 74 52.136719 73.992188 52.015625 73.9375 C 51.839844 73.855469 51.738281 73.753906 51.664062 73.585938 C 51.601562 73.457031 51.601562 73.3125 51.601562 70.800781 C 51.601562 68.285156 51.601562 68.144531 51.664062 68.011719 C 51.738281 67.847656 51.839844 67.742188 52.015625 67.664062 C 52.136719 67.605469 52.25 67.601562 53.199219 67.601562 C 54.148438 67.601562 54.261719 67.59375 54.386719 67.535156 C 54.554688 67.460938 54.65625 67.359375 54.738281 67.183594 C 54.792969 67.0625 54.800781 66.953125 54.800781 65.996094 L 54.800781 64.941406 L 54.707031 64.761719 C 54.632812 64.621094 54.578125 64.566406 54.4375 64.492188 L 54.261719 64.398438 L 53.203125 64.398438 C 52.246094 64.398438 52.136719 64.394531 52.015625 64.335938 C 51.839844 64.257812 51.738281 64.152344 51.664062 63.988281 C 51.605469 63.863281 51.601562 63.753906 51.601562 62.796875 L 51.601562 61.738281 L 51.507812 61.5625 C 51.433594 61.421875 51.378906 61.367188 51.238281 61.292969 L 51.058594 61.199219 L 50.003906 61.199219 C 49.046875 61.199219 48.9375 61.207031 48.816406 61.261719 C 48.640625 61.34375 48.539062 61.445312 48.464844 61.613281 C 48.40625 61.738281 48.398438 61.851562 48.398438 62.800781 C 48.398438 63.75 48.394531 63.863281 48.335938 63.984375 C 48.257812 64.160156 48.152344 64.261719 47.988281 64.335938 C 47.863281 64.394531 47.75 64.398438 46.800781 64.398438 C 45.851562 64.398438 45.738281 64.40625 45.617188 64.464844 C 45.441406 64.542969 45.339844 64.648438 45.261719 64.8125 C 45.203125 64.941406 45.199219 65.085938 45.199219 67.601562 C 45.199219 70.113281 45.203125 70.257812 45.261719 70.386719 C 45.339844 70.554688 45.441406 70.65625 45.617188 70.738281 C 45.738281 70.792969 45.847656 70.800781 46.804688 70.800781 L 47.859375 70.800781 L 48.035156 70.894531 C 48.179688 70.964844 48.234375 71.019531 48.308594 71.164062 L 48.398438 71.339844 L 48.398438 72.398438 C 48.398438 73.351562 48.394531 73.464844 48.335938 73.582031 C 48.257812 73.761719 48.152344 73.859375 47.988281 73.9375 C 47.863281 73.992188 47.75 74 46.800781 74 C 45.851562 74 45.738281 74.007812 45.617188 74.0625 C 45.441406 74.144531 45.339844 74.246094 45.261719 74.414062 C 45.207031 74.535156 45.199219 74.648438 45.199219 75.601562 C 45.199219 76.550781 45.191406 76.664062 45.136719 76.785156 C 45.058594 76.960938 44.953125 77.058594 44.785156 77.136719 C 44.664062 77.191406 44.550781 77.199219 43.601562 77.199219 C 42.648438 77.199219 42.535156 77.207031 42.417969 77.261719 C 42.238281 77.34375 42.140625 77.445312 42.0625 77.613281 C 42.007812 77.738281 42 77.847656 42 78.800781 C 42 79.753906 42.007812 79.863281 42.0625 79.988281 C 42.140625 80.152344 42.238281 80.257812 42.417969 80.335938 C 42.542969 80.398438 42.6875 80.398438 45.199219 80.398438 C 47.714844 80.398438 47.855469 80.398438 47.988281 80.335938 C 48.152344 80.261719 48.257812 80.160156 48.335938 79.984375 C 48.394531 79.863281 48.398438 79.75 48.398438 78.800781 C 48.398438 77.851562 48.40625 77.738281 48.464844 77.613281 C 48.539062 77.445312 48.640625 77.34375 48.816406 77.261719 C 48.9375 77.207031 49.046875 77.199219 50.003906 77.199219 L 51.058594 77.199219 L 51.238281 77.292969 C 51.378906 77.367188 51.433594 77.421875 51.507812 77.5625 L 51.601562 77.738281 L 51.601562 78.796875 C 51.601562 79.753906 51.605469 79.863281 51.664062 79.988281 C 51.738281 80.152344 51.839844 80.257812 52.015625 80.335938 C 52.144531 80.398438 52.289062 80.398438 54.804688 80.398438 L 57.460938 80.398438 L 57.636719 80.492188 C 57.78125 80.566406 57.832031 80.621094 57.90625 80.761719 L 58 80.941406 L 58 81.996094 C 58 82.953125 58.007812 83.0625 58.0625 83.1875 C 58.140625 83.351562 58.238281 83.457031 58.417969 83.535156 C 58.535156 83.59375 58.648438 83.601562 59.601562 83.601562 L 60.660156 83.601562 L 60.835938 83.691406 C 60.980469 83.765625 61.035156 83.820312 61.105469 83.964844 L 61.199219 84.140625 L 61.199219 86.796875 C 61.199219 89.3125 61.203125 89.457031 61.261719 89.585938 C 61.339844 89.753906 61.441406 89.855469 61.617188 89.9375 C 61.738281 89.992188 61.847656 90 62.800781 90 C 63.753906 90 63.863281 89.992188 63.988281 89.9375 C 64.152344 89.859375 64.257812 89.761719 64.335938 89.582031 C 64.398438 89.457031 64.398438 89.269531 64.398438 85.199219 C 64.398438 81.125 64.402344 80.941406 64.464844 80.8125 C 64.539062 80.648438 64.640625 80.542969 64.816406 80.464844 C 64.9375 80.40625 65.050781 80.398438 66 80.398438 C 66.949219 80.398438 67.0625 80.394531 67.1875 80.335938 C 67.351562 80.261719 67.457031 80.160156 67.535156 79.984375 C 67.59375 79.863281 67.601562 79.75 67.601562 78.800781 C 67.601562 77.851562 67.605469 77.738281 67.664062 77.613281 C 67.738281 77.445312 67.839844 77.34375 68.015625 77.261719 C 68.136719 77.207031 68.246094 77.199219 69.203125 77.199219 L 70.261719 77.199219 L 70.4375 77.292969 C 70.578125 77.367188 70.632812 77.421875 70.707031 77.5625 L 70.800781 77.738281 L 70.800781 78.796875 C 70.800781 79.753906 70.808594 79.863281 70.863281 79.988281 C 70.941406 80.152344 71.039062 80.257812 71.214844 80.335938 C 71.34375 80.398438 71.488281 80.398438 74 80.398438 C 76.511719 80.398438 76.65625 80.398438 76.785156 80.335938 C 76.953125 80.261719 77.058594 80.160156 77.136719 79.984375 C 77.195312 79.855469 77.199219 79.710938 77.199219 77.199219 C 77.199219 74.6875 77.203125 74.542969 77.261719 74.414062 C 77.339844 74.246094 77.441406 74.144531 77.617188 74.0625 C 77.738281 74.007812 77.851562 74 78.800781 74 C 79.75 74 79.863281 73.992188 79.988281 73.9375 C 80.152344 73.859375 80.257812 73.761719 80.335938 73.582031 C 80.398438 73.457031 80.398438 73.308594 80.398438 70.796875 L 80.398438 68.140625 L 80.308594 67.964844 C 80.234375 67.820312 80.179688 67.765625 80.035156 67.691406 L 79.859375 67.601562 L 78.804688 67.601562 C 77.847656 67.601562 77.738281 67.59375 77.617188 67.535156 C 77.441406 67.457031 77.339844 67.351562 77.261719 67.1875 C 77.203125 67.058594 77.199219 66.914062 77.199219 64.398438 L 77.199219 61.738281 L 77.105469 61.5625 C 77.035156 61.421875 76.980469 61.367188 76.835938 61.292969 L 76.660156 61.199219 L 75.601562 61.199219 C 74.648438 61.199219 74.535156 61.191406 74.417969 61.136719 C 74.238281 61.058594 74.140625 60.953125 74.0625 60.785156 C 74.007812 60.664062 74 60.554688 74 59.597656 L 74 58.539062 L 73.90625 58.363281 C 73.832031 58.21875 73.78125 58.167969 73.636719 58.09375 L 73.460938 58 L 72.402344 58 C 71.445312 58 71.335938 57.992188 71.214844 57.9375 C 71.039062 57.855469 70.941406 57.753906 70.863281 57.585938 C 70.808594 57.464844 70.800781 57.351562 70.800781 56.398438 L 70.800781 55.339844 L 70.707031 55.164062 C 70.632812 55.019531 70.578125 54.964844 70.4375 54.894531 L 70.261719 54.800781 L 67.601562 54.800781 C 65.089844 54.800781 64.941406 54.796875 64.816406 54.738281 C 64.640625 54.65625 64.539062 54.554688 64.464844 54.386719 C 64.402344 54.257812 64.398438 54.078125 64.398438 50 C 64.398438 45.921875 64.402344 45.742188 64.464844 45.613281 C 64.539062 45.445312 64.640625 45.34375 64.816406 45.261719 C 64.9375 45.207031 65.046875 45.199219 66.003906 45.199219 L 67.058594 45.199219 L 67.238281 45.292969 C 67.378906 45.367188 67.433594 45.421875 67.507812 45.5625 L 67.601562 45.738281 L 67.601562 48.398438 C 67.601562 50.914062 67.601562 51.058594 67.664062 51.1875 C 67.738281 51.351562 67.839844 51.457031 68.015625 51.535156 C 68.144531 51.597656 68.285156 51.601562 70.800781 51.601562 C 73.3125 51.601562 73.457031 51.597656 73.585938 51.535156 C 73.753906 51.460938 73.855469 51.359375 73.9375 51.183594 C 73.996094 51.058594 74 50.910156 74 48.398438 L 74 45.738281 L 73.90625 45.5625 C 73.832031 45.421875 73.78125 45.367188 73.636719 45.292969 L 73.460938 45.199219 L 72.402344 45.199219 C 71.445312 45.199219 71.335938 45.191406 71.214844 45.136719 C 71.039062 45.058594 70.941406 44.953125 70.863281 44.785156 C 70.804688 44.65625 70.800781 44.472656 70.800781 40.398438 L 70.800781 36.140625 L 70.707031 35.964844 C 70.632812 35.820312 70.578125 35.765625 70.4375 35.691406 L 70.261719 35.601562 L 67.601562 35.601562 C 65.089844 35.601562 64.941406 35.597656 64.816406 35.535156 C 64.640625 35.457031 64.539062 35.351562 64.464844 35.1875 C 64.402344 35.058594 64.398438 34.914062 64.398438 32.398438 L 64.398438 29.738281 L 64.308594 29.5625 C 64.234375 29.421875 64.179688 29.367188 64.035156 29.292969 L 63.859375 29.199219 L 62.804688 29.199219 C 61.847656 29.199219 61.738281 29.207031 61.617188 29.261719 Z M 67.238281 38.894531 C 67.378906 38.964844 67.433594 39.019531 67.507812 39.164062 L 67.601562 39.339844 L 67.601562 40.398438 C 67.601562 41.351562 67.59375 41.464844 67.535156 41.582031 C 67.457031 41.761719 67.351562 41.859375 67.1875 41.9375 C 67.0625 41.992188 66.953125 42 66 42 C 65.046875 42 64.9375 41.992188 64.816406 41.9375 C 64.640625 41.855469 64.539062 41.753906 64.464844 41.585938 C 64.40625 41.464844 64.398438 41.351562 64.398438 40.398438 C 64.398438 39.445312 64.40625 39.335938 64.464844 39.214844 C 64.539062 39.046875 64.640625 38.941406 64.816406 38.863281 C 64.9375 38.808594 65.046875 38.800781 66.003906 38.800781 L 67.058594 38.800781 Z M 73.636719 64.492188 C 73.78125 64.566406 73.832031 64.621094 73.90625 64.761719 L 74 64.941406 L 74 69.195312 C 74 73.269531 73.996094 73.457031 73.9375 73.582031 C 73.855469 73.761719 73.753906 73.859375 73.585938 73.9375 C 73.457031 73.996094 73.277344 74 69.199219 74 C 65.128906 74 64.941406 73.996094 64.816406 73.9375 C 64.640625 73.855469 64.539062 73.753906 64.464844 73.585938 C 64.402344 73.457031 64.398438 73.277344 64.398438 69.199219 C 64.398438 65.125 64.402344 64.941406 64.464844 64.8125 C 64.539062 64.648438 64.640625 64.542969 64.816406 64.464844 C 64.941406 64.402344 65.128906 64.398438 69.203125 64.398438 L 73.460938 64.398438 Z M 73.636719 64.492188 "/>
<path style=" stroke:none;fill-rule:nonzero;fill:rgb(0%,0%,0%);fill-opacity:1;" d="M 68.015625 67.664062 C 67.839844 67.742188 67.738281 67.847656 67.664062 68.011719 C 67.605469 68.136719 67.601562 68.246094 67.601562 69.199219 C 67.601562 70.152344 67.605469 70.261719 67.664062 70.386719 C 67.738281 70.554688 67.839844 70.65625 68.015625 70.738281 C 68.136719 70.792969 68.246094 70.800781 69.199219 70.800781 C 70.152344 70.800781 70.261719 70.792969 70.386719 70.738281 C 70.554688 70.660156 70.65625 70.558594 70.738281 70.382812 C 70.792969 70.261719 70.800781 70.152344 70.800781 69.195312 L 70.800781 68.140625 L 70.707031 67.964844 C 70.632812 67.820312 70.578125 67.765625 70.4375 67.691406 L 70.261719 67.601562 L 69.203125 67.601562 C 68.246094 67.601562 68.136719 67.605469 68.015625 67.664062 Z M 68.015625 67.664062 "/>
<path style=" stroke:none;fill-rule:nonzero;fill:rgb(0%,0%,0%);fill-opacity:1;" d="M 45.617188 32.464844 C 45.441406 32.542969 45.339844 32.648438 45.261719 32.8125 C 45.207031 32.9375 45.199219 33.046875 45.199219 34 C 45.199219 34.953125 45.207031 35.0625 45.261719 35.1875 C 45.339844 35.351562 45.441406 35.457031 45.617188 35.535156 C 45.738281 35.59375 45.847656 35.601562 46.800781 35.601562 C 47.753906 35.601562 47.863281 35.59375 47.988281 35.535156 C 48.152344 35.460938 48.257812 35.359375 48.335938 35.183594 C 48.394531 35.0625 48.398438 34.953125 48.398438 33.996094 L 48.398438 32.941406 L 48.308594 32.761719 C 48.234375 32.621094 48.179688 32.566406 48.035156 32.492188 L 47.859375 32.398438 L 46.804688 32.398438 C 45.847656 32.398438 45.738281 32.40625 45.617188 32.464844 Z M 45.617188 32.464844 "/>
<path style=" stroke:none;fill-rule:nonzero;fill:rgb(0%,0%,0%);fill-opacity:1;" d="M 52.015625 32.464844 C 51.839844 32.542969 51.738281 32.648438 51.664062 32.8125 C 51.605469 32.9375 51.601562 33.046875 51.601562 34 C 51.601562 34.953125 51.605469 35.0625 51.664062 35.1875 C 51.738281 35.351562 51.839844 35.457031 52.015625 35.535156 C 52.136719 35.59375 52.246094 35.601562 53.199219 35.601562 C 54.152344 35.601562 54.261719 35.59375 54.386719 35.535156 C 54.554688 35.460938 54.65625 35.359375 54.738281 35.183594 C 54.792969 35.0625 54.800781 34.953125 54.800781 33.996094 L 54.800781 32.941406 L 54.707031 32.761719 C 54.632812 32.621094 54.578125 32.566406 54.4375 32.492188 L 54.261719 32.398438 L 53.203125 32.398438 C 52.246094 32.398438 52.136719 32.40625 52.015625 32.464844 Z M 52.015625 32.464844 "/>
<path style=" stroke:none;fill-rule:nonzero;fill:rgb(0%,0%,0%);fill-opacity:1;" d="M 10.417969 35.664062 C 10.238281 35.742188 10.140625 35.847656 10.0625 36.011719 C 10.007812 36.136719 10 36.246094 10 37.199219 C 10 38.152344 10.007812 38.261719 10.0625 38.386719 C 10.140625 38.554688 10.238281 38.65625 10.417969 38.738281 C 10.542969 38.796875 10.730469 38.800781 14.800781 38.800781 C 18.875 38.800781 19.058594 38.796875 19.1875 38.738281 C 19.351562 38.660156 19.457031 38.558594 19.535156 38.382812 C 19.59375 38.261719 19.601562 38.152344 19.601562 37.195312 L 19.601562 36.140625 L 19.507812 35.964844 C 19.433594 35.820312 19.378906 35.765625 19.238281 35.691406 L 19.058594 35.601562 L 14.804688 35.601562 C 10.730469 35.601562 10.542969 35.601562 10.417969 35.664062 Z M 10.417969 35.664062 "/>
<path style=" stroke:none;fill-rule:nonzero;fill:rgb(0%,0%,0%);fill-opacity:1;" d="M 80.816406 35.664062 C 80.640625 35.742188 80.539062 35.847656 80.464844 36.011719 C 80.40625 36.136719 80.398438 36.246094 80.398438 37.199219 C 80.398438 38.152344 80.40625 38.261719 80.464844 38.386719 C 80.539062 38.554688 80.640625 38.65625 80.816406 38.738281 C 80.9375 38.792969 81.046875 38.800781 82 38.800781 C 82.953125 38.800781 83.0625 38.792969 83.1875 38.738281 C 83.351562 38.660156 83.457031 38.558594 83.535156 38.382812 C 83.59375 38.261719 83.601562 38.152344 83.601562 37.195312 L 83.601562 36.140625 L 83.507812 35.964844 C 83.433594 35.820312 83.378906 35.765625 83.238281 35.691406 L 83.058594 35.601562 L 82.003906 35.601562 C 81.046875 35.601562 80.9375 35.605469 80.816406 35.664062 Z M 80.816406 35.664062 "/>
<path style=" stroke:none;fill-rule:nonzero;fill:rgb(0%,0%,0%);fill-opacity:1;" d="M 74.417969 38.863281 C 74.238281 38.941406 74.140625 39.046875 74.0625 39.214844 C 74.007812 39.335938 74 39.445312 74 40.398438 C 74 41.351562 74.007812 41.464844 74.0625 41.585938 C 74.140625 41.753906 74.238281 41.855469 74.417969 41.9375 C 74.535156 41.992188 74.648438 42 75.601562 42 C 76.554688 42 76.664062 41.992188 76.785156 41.9375 C 76.953125 41.859375 77.058594 41.761719 77.136719 41.582031 C 77.191406 41.464844 77.199219 41.351562 77.199219 40.398438 L 77.199219 39.339844 L 77.105469 39.164062 C 77.035156 39.019531 76.980469 38.964844 76.835938 38.894531 L 76.660156 38.800781 L 75.601562 38.800781 C 74.648438 38.800781 74.535156 38.808594 74.417969 38.863281 Z M 74.417969 38.863281 "/>
<path style=" stroke:none;fill-rule:nonzero;fill:rgb(0%,0%,0%);fill-opacity:1;" d="M 84.015625 38.863281 C 83.839844 38.941406 83.738281 39.046875 83.664062 39.214844 C 83.605469 39.335938 83.601562 39.445312 83.601562 40.398438 C 83.601562 41.351562 83.605469 41.464844 83.664062 41.585938 C 83.738281 41.753906 83.839844 41.855469 84.015625 41.9375 C 84.136719 41.992188 84.246094 42 85.199219 42 C 86.152344 42 86.261719 41.992188 86.386719 41.9375 C 86.554688 41.859375 86.65625 41.761719 86.738281 41.582031 C 86.792969 41.464844 86.800781 41.351562 86.800781 40.398438 L 86.800781 39.339844 L 86.707031 39.164062 C 86.632812 39.019531 86.578125 38.964844 86.4375 38.894531 L 86.261719 38.800781 L 85.203125 38.800781 C 84.246094 38.800781 84.136719 38.808594 84.015625 38.863281 Z M 84.015625 38.863281 "/>
<path style=" stroke:none;fill-rule:nonzero;fill:rgb(0%,0%,0%);fill-opacity:1;" d="M 16.816406 42.0625 C 16.640625 42.144531 16.539062 42.246094 16.464844 42.414062 C 16.40625 42.535156 16.398438 42.648438 16.398438 43.601562 C 16.398438 44.554688 16.40625 44.664062 16.464844 44.785156 C 16.539062 44.953125 16.640625 45.058594 16.816406 45.136719 C 16.9375 45.191406 17.046875 45.199219 18 45.199219 C 18.953125 45.199219 19.0625 45.191406 19.1875 45.136719 C 19.351562 45.058594 19.457031 44.960938 19.535156 44.785156 C 19.59375 44.664062 19.601562 44.554688 19.601562 43.597656 L 19.601562 42.539062 L 19.507812 42.363281 C 19.433594 42.21875 19.378906 42.167969 19.238281 42.09375 L 19.058594 42 L 18.003906 42 C 17.046875 42 16.9375 42.007812 16.816406 42.0625 Z M 16.816406 42.0625 "/>
<path style=" stroke:none;fill-rule:nonzero;fill:rgb(0%,0%,0%);fill-opacity:1;" d="M 77.617188 42.0625 C 77.441406 42.144531 77.339844 42.246094 77.261719 42.414062 C 77.207031 42.535156 77.199219 42.648438 77.199219 43.601562 C 77.199219 44.554688 77.207031 44.664062 77.261719 44.785156 C 77.339844 44.953125 77.441406 45.058594 77.617188 45.136719 C 77.738281 45.191406 77.847656 45.199219 78.800781 45.199219 C 79.753906 45.199219 79.863281 45.191406 79.988281 45.136719 C 80.152344 45.058594 80.257812 44.960938 80.335938 44.785156 C 80.394531 44.664062 80.398438 44.554688 80.398438 43.597656 L 80.398438 42.539062 L 80.308594 42.363281 C 80.234375 42.21875 80.179688 42.167969 80.035156 42.09375 L 79.859375 42 L 78.804688 42 C 77.847656 42 77.738281 42.007812 77.617188 42.0625 Z M 77.617188 42.0625 "/>
<path style=" stroke:none;fill-rule:nonzero;fill:rgb(0%,0%,0%);fill-opacity:1;" d="M 10.417969 45.261719 C 10.238281 45.34375 10.140625 45.445312 10.0625 45.613281 C 10.007812 45.738281 10 45.847656 10 46.800781 C 10 47.753906 10.007812 47.863281 10.0625 47.988281 C 10.140625 48.152344 10.238281 48.257812 10.417969 48.335938 C 10.542969 48.398438 10.6875 48.398438 13.199219 48.398438 C 15.714844 48.398438 15.855469 48.398438 15.988281 48.335938 C 16.152344 48.261719 16.257812 48.160156 16.335938 47.984375 C 16.394531 47.863281 16.398438 47.753906 16.398438 46.796875 L 16.398438 45.738281 L 16.308594 45.5625 C 16.234375 45.421875 16.179688 45.367188 16.035156 45.292969 L 15.859375 45.199219 L 13.203125 45.199219 C 10.691406 45.199219 10.542969 45.203125 10.417969 45.261719 Z M 10.417969 45.261719 "/>
<path style=" stroke:none;fill-rule:nonzero;fill:rgb(0%,0%,0%);fill-opacity:1;" d="M 84.015625 45.261719 C 83.839844 45.34375 83.738281 45.445312 83.664062 45.613281 C 83.605469 45.738281 83.601562 45.851562 83.601562 46.800781 C 83.601562 47.75 83.59375 47.863281 83.535156 47.984375 C 83.457031 48.160156 83.351562 48.261719 83.1875 48.335938 C 83.0625 48.394531 82.949219 48.398438 82 48.398438 C 81.050781 48.398438 80.9375 48.40625 80.816406 48.464844 C 80.640625 48.542969 80.539062 48.648438 80.464844 48.8125 C 80.40625 48.9375 80.398438 49.046875 80.398438 50 C 80.398438 50.953125 80.40625 51.0625 80.464844 51.1875 C 80.539062 51.351562 80.640625 51.457031 80.816406 51.535156 C 80.9375 51.59375 81.046875 51.601562 82.003906 51.601562 L 83.058594 51.601562 L 83.238281 51.691406 C 83.378906 51.765625 83.433594 51.820312 83.507812 51.964844 L 83.601562 52.140625 L 83.601562 54.796875 C 83.601562 57.3125 83.601562 57.457031 83.664062 57.585938 C 83.738281 57.753906 83.839844 57.855469 84.015625 57.9375 C 84.144531 57.996094 84.285156 58 86.800781 58 C 89.3125 58 89.457031 57.996094 89.585938 57.9375 C 89.753906 57.859375 89.855469 57.761719 89.9375 57.582031 C 89.996094 57.457031 90 57.230469 90 51.597656 L 90 45.738281 L 89.90625 45.5625 C 89.832031 45.421875 89.78125 45.367188 89.636719 45.292969 L 89.460938 45.199219 L 86.804688 45.199219 C 84.289062 45.199219 84.144531 45.203125 84.015625 45.261719 Z M 84.015625 45.261719 "/>
<path style=" stroke:none;fill-rule:nonzero;fill:rgb(0%,0%,0%);fill-opacity:1;" d="M 16.816406 48.464844 C 16.640625 48.542969 16.539062 48.648438 16.464844 48.8125 C 16.40625 48.9375 16.398438 49.046875 16.398438 50 C 16.398438 50.953125 16.40625 51.0625 16.464844 51.1875 C 16.539062 51.351562 16.640625 51.457031 16.816406 51.535156 C 16.9375 51.59375 17.046875 51.601562 18 51.601562 C 18.953125 51.601562 19.0625 51.59375 19.1875 51.535156 C 19.351562 51.460938 19.457031 51.359375 19.535156 51.183594 C 19.59375 51.0625 19.601562 50.953125 19.601562 49.996094 L 19.601562 48.941406 L 19.507812 48.761719 C 19.433594 48.621094 19.378906 48.566406 19.238281 48.492188 L 19.058594 48.398438 L 18.003906 48.398438 C 17.046875 48.398438 16.9375 48.40625 16.816406 48.464844 Z M 16.816406 48.464844 "/>
<path style=" stroke:none;fill-rule:nonzero;fill:rgb(0%,0%,0%);fill-opacity:1;" d="M 55.214844 48.464844 C 55.039062 48.542969 54.941406 48.648438 54.863281 48.8125 C 54.808594 48.9375 54.800781 49.050781 54.800781 50 C 54.800781 50.949219 54.792969 51.0625 54.738281 51.183594 C 54.65625 51.359375 54.554688 51.460938 54.386719 51.535156 C 54.261719 51.59375 54.148438 51.601562 53.199219 51.601562 C 52.25 51.601562 52.136719 51.605469 52.015625 51.664062 C 51.839844 51.742188 51.738281 51.847656 51.664062 52.011719 C 51.601562 52.144531 51.601562 52.285156 51.601562 54.800781 C 51.601562 57.3125 51.601562 57.457031 51.664062 57.585938 C 51.738281 57.753906 51.839844 57.855469 52.015625 57.9375 C 52.136719 57.992188 52.246094 58 53.199219 58 C 54.152344 58 54.261719 57.992188 54.386719 57.9375 C 54.554688 57.859375 54.65625 57.761719 54.738281 57.582031 C 54.792969 57.464844 54.800781 57.351562 54.800781 56.398438 C 54.800781 55.449219 54.808594 55.335938 54.863281 55.214844 C 54.941406 55.046875 55.039062 54.941406 55.214844 54.863281 C 55.335938 54.808594 55.449219 54.800781 56.398438 54.800781 C 57.351562 54.800781 57.464844 54.792969 57.585938 54.738281 C 57.753906 54.660156 57.855469 54.558594 57.9375 54.382812 C 57.996094 54.257812 58 54.109375 58 51.597656 L 58 48.941406 L 57.90625 48.761719 C 57.832031 48.621094 57.78125 48.566406 57.636719 48.492188 L 57.460938 48.398438 L 56.402344 48.398438 C 55.445312 48.398438 55.335938 48.40625 55.214844 48.464844 Z M 55.214844 48.464844 "/>
<path style=" stroke:none;fill-rule:nonzero;fill:rgb(0%,0%,0%);fill-opacity:1;" d="M 74.417969 51.664062 C 74.238281 51.742188 74.140625 51.847656 74.0625 52.011719 C 74.007812 52.136719 74 52.246094 74 53.199219 C 74 54.152344 74.007812 54.261719 74.0625 54.386719 C 74.140625 54.554688 74.238281 54.65625 74.417969 54.738281 C 74.535156 54.792969 74.648438 54.800781 75.601562 54.800781 C 76.554688 54.800781 76.664062 54.792969 76.785156 54.738281 C 76.953125 54.660156 77.058594 54.558594 77.136719 54.382812 C 77.191406 54.261719 77.199219 54.152344 77.199219 53.195312 L 77.199219 52.140625 L 77.105469 51.964844 C 77.035156 51.820312 76.980469 51.765625 76.835938 51.691406 L 76.660156 51.601562 L 75.601562 51.601562 C 74.648438 51.601562 74.535156 51.605469 74.417969 51.664062 Z M 74.417969 51.664062 "/>
<path style=" stroke:none;fill-rule:nonzero;fill:rgb(0%,0%,0%);fill-opacity:1;" d="M 10.417969 54.863281 C 10.238281 54.941406 10.140625 55.046875 10.0625 55.214844 C 10.007812 55.335938 10 55.445312 10 56.398438 C 10 57.351562 10.007812 57.464844 10.0625 57.585938 C 10.140625 57.753906 10.238281 57.855469 10.417969 57.9375 C 10.535156 57.992188 10.648438 58 11.601562 58 C 12.554688 58 12.664062 57.992188 12.785156 57.9375 C 12.953125 57.859375 13.058594 57.761719 13.136719 57.582031 C 13.191406 57.464844 13.199219 57.351562 13.199219 56.398438 L 13.199219 55.339844 L 13.105469 55.164062 C 13.035156 55.019531 12.980469 54.964844 12.835938 54.894531 L 12.660156 54.800781 L 11.601562 54.800781 C 10.648438 54.800781 10.535156 54.808594 10.417969 54.863281 Z M 10.417969 54.863281 "/>
<path style=" stroke:none;fill-rule:nonzero;fill:rgb(0%,0%,0%);fill-opacity:1;" d="M 29.617188 54.863281 C 29.441406 54.941406 29.339844 55.046875 29.261719 55.214844 C 29.207031 55.335938 29.199219 55.445312 29.199219 56.398438 C 29.199219 57.351562 29.207031 57.464844 29.261719 57.585938 C 29.339844 57.753906 29.441406 57.855469 29.617188 57.9375 C 29.738281 57.992188 29.847656 58 30.800781 58 C 31.753906 58 31.863281 57.992188 31.988281 57.9375 C 32.152344 57.859375 32.257812 57.761719 32.335938 57.582031 C 32.394531 57.464844 32.398438 57.351562 32.398438 56.398438 L 32.398438 55.339844 L 32.308594 55.164062 C 32.234375 55.019531 32.179688 54.964844 32.035156 54.894531 L 31.859375 54.800781 L 30.804688 54.800781 C 29.847656 54.800781 29.738281 54.808594 29.617188 54.863281 Z M 29.617188 54.863281 "/>
<path style=" stroke:none;fill-rule:nonzero;fill:rgb(0%,0%,0%);fill-opacity:1;" d="M 36.015625 54.863281 C 35.839844 54.941406 35.738281 55.046875 35.664062 55.214844 C 35.601562 55.34375 35.601562 55.488281 35.601562 58 C 35.601562 60.511719 35.601562 60.65625 35.664062 60.785156 C 35.738281 60.953125 35.839844 61.058594 36.015625 61.136719 C 36.144531 61.195312 36.285156 61.199219 38.800781 61.199219 C 41.3125 61.199219 41.457031 61.195312 41.585938 61.136719 C 41.753906 61.058594 41.855469 60.960938 41.9375 60.785156 C 41.992188 60.664062 42 60.554688 42 59.597656 L 42 58.539062 L 41.90625 58.363281 C 41.832031 58.21875 41.78125 58.167969 41.636719 58.09375 L 41.460938 58 L 40.402344 58 C 39.445312 58 39.335938 57.992188 39.214844 57.9375 C 39.039062 57.855469 38.941406 57.753906 38.863281 57.585938 C 38.808594 57.464844 38.800781 57.351562 38.800781 56.398438 L 38.800781 55.339844 L 38.707031 55.164062 C 38.632812 55.019531 38.578125 54.964844 38.4375 54.894531 L 38.261719 54.800781 L 37.203125 54.800781 C 36.246094 54.800781 36.136719 54.808594 36.015625 54.863281 Z M 36.015625 54.863281 "/>
<path style=" stroke:none;fill-rule:nonzero;fill:rgb(0%,0%,0%);fill-opacity:1;" d="M 77.617188 54.863281 C 77.441406 54.941406 77.339844 55.046875 77.261719 55.214844 C 77.207031 55.335938 77.199219 55.445312 77.199219 56.398438 C 77.199219 57.351562 77.207031 57.464844 77.261719 57.585938 C 77.339844 57.753906 77.441406 57.855469 77.617188 57.9375 C 77.738281 57.992188 77.847656 58 78.800781 58 C 79.753906 58 79.863281 57.992188 79.988281 57.9375 C 80.152344 57.859375 80.257812 57.761719 80.335938 57.582031 C 80.394531 57.464844 80.398438 57.351562 80.398438 56.398438 L 80.398438 55.339844 L 80.308594 55.164062 C 80.234375 55.019531 80.179688 54.964844 80.035156 54.894531 L 79.859375 54.800781 L 78.804688 54.800781 C 77.847656 54.800781 77.738281 54.808594 77.617188 54.863281 Z M 77.617188 54.863281 "/>
<path style=" stroke:none;fill-rule:nonzero;fill:rgb(0%,0%,0%);fill-opacity:1;" d="M 13.617188 58.0625 C 13.441406 58.144531 13.339844 58.246094 13.261719 58.414062 C 13.207031 58.535156 13.199219 58.648438 13.199219 59.601562 C 13.199219 60.554688 13.207031 60.664062 13.261719 60.785156 C 13.339844 60.953125 13.441406 61.058594 13.617188 61.136719 C 13.742188 61.195312 13.929688 61.199219 18.003906 61.199219 L 22.261719 61.199219 L 22.4375 61.292969 C 22.578125 61.367188 22.632812 61.421875 22.707031 61.5625 L 22.800781 61.738281 L 22.800781 62.796875 C 22.800781 63.753906 22.808594 63.863281 22.863281 63.988281 C 22.941406 64.152344 23.039062 64.257812 23.214844 64.335938 C 23.34375 64.398438 23.570312 64.398438 29.199219 64.398438 C 34.835938 64.398438 35.054688 64.398438 35.1875 64.335938 C 35.351562 64.261719 35.457031 64.160156 35.535156 63.984375 C 35.59375 63.863281 35.601562 63.753906 35.601562 62.796875 L 35.601562 61.738281 L 35.507812 61.5625 C 35.433594 61.421875 35.378906 61.367188 35.238281 61.292969 L 35.058594 61.199219 L 32.402344 61.199219 C 29.890625 61.199219 29.742188 61.195312 29.617188 61.136719 C 29.441406 61.058594 29.339844 60.953125 29.261719 60.785156 C 29.207031 60.664062 29.199219 60.554688 29.199219 59.597656 L 29.199219 58.539062 L 29.105469 58.363281 C 29.035156 58.21875 28.980469 58.167969 28.835938 58.09375 L 28.660156 58 L 21.203125 58 C 14.011719 58 13.746094 58.003906 13.617188 58.0625 Z M 13.617188 58.0625 "/>
<path style=" stroke:none;fill-rule:nonzero;fill:rgb(0%,0%,0%);fill-opacity:1;" d="M 45.617188 58.0625 C 45.441406 58.144531 45.339844 58.246094 45.261719 58.414062 C 45.207031 58.535156 45.199219 58.648438 45.199219 59.601562 C 45.199219 60.554688 45.207031 60.664062 45.261719 60.785156 C 45.339844 60.953125 45.441406 61.058594 45.617188 61.136719 C 45.738281 61.191406 45.847656 61.199219 46.800781 61.199219 C 47.753906 61.199219 47.863281 61.191406 47.988281 61.136719 C 48.152344 61.058594 48.257812 60.960938 48.335938 60.785156 C 48.394531 60.664062 48.398438 60.554688 48.398438 59.597656 L 48.398438 58.539062 L 48.308594 58.363281 C 48.234375 58.21875 48.179688 58.167969 48.035156 58.09375 L 47.859375 58 L 46.804688 58 C 45.847656 58 45.738281 58.007812 45.617188 58.0625 Z M 45.617188 58.0625 "/>
<path style=" stroke:none;fill-rule:nonzero;fill:rgb(0%,0%,0%);fill-opacity:1;" d="M 55.214844 58.0625 C 55.039062 58.144531 54.941406 58.246094 54.863281 58.414062 C 54.804688 58.542969 54.800781 58.6875 54.800781 61.199219 C 54.800781 63.714844 54.804688 63.855469 54.863281 63.988281 C 54.941406 64.152344 55.039062 64.257812 55.214844 64.335938 C 55.335938 64.394531 55.445312 64.398438 56.398438 64.398438 C 57.351562 64.398438 57.464844 64.394531 57.585938 64.335938 C 57.753906 64.261719 57.855469 64.160156 57.9375 63.984375 C 57.996094 63.855469 58 63.710938 58 61.195312 L 58 58.539062 L 57.90625 58.363281 C 57.832031 58.21875 57.78125 58.167969 57.636719 58.09375 L 57.460938 58 L 56.402344 58 C 55.445312 58 55.335938 58.007812 55.214844 58.0625 Z M 55.214844 58.0625 "/>
<path style=" stroke:none;fill-rule:nonzero;fill:rgb(0%,0%,0%);fill-opacity:1;" d="M 10.417969 61.261719 C 10.238281 61.34375 10.140625 61.445312 10.0625 61.613281 C 10.007812 61.738281 10 61.847656 10 62.800781 C 10 63.753906 10.007812 63.863281 10.0625 63.988281 C 10.140625 64.152344 10.238281 64.257812 10.417969 64.335938 C 10.535156 64.394531 10.648438 64.398438 11.601562 64.398438 C 12.554688 64.398438 12.664062 64.394531 12.785156 64.335938 C 12.953125 64.261719 13.058594 64.160156 13.136719 63.984375 C 13.191406 63.863281 13.199219 63.753906 13.199219 62.796875 L 13.199219 61.738281 L 13.105469 61.5625 C 13.035156 61.421875 12.980469 61.367188 12.835938 61.292969 L 12.660156 61.199219 L 11.601562 61.199219 C 10.648438 61.199219 10.535156 61.207031 10.417969 61.261719 Z M 10.417969 61.261719 "/>
<path style=" stroke:none;fill-rule:nonzero;fill:rgb(0%,0%,0%);fill-opacity:1;" d="M 80.816406 61.261719 C 80.640625 61.34375 80.539062 61.445312 80.464844 61.613281 C 80.40625 61.738281 80.398438 61.847656 80.398438 62.800781 C 80.398438 63.753906 80.40625 63.863281 80.464844 63.988281 C 80.539062 64.152344 80.640625 64.257812 80.816406 64.335938 C 80.9375 64.394531 81.046875 64.398438 82 64.398438 C 82.953125 64.398438 83.0625 64.394531 83.1875 64.335938 C 83.351562 64.261719 83.457031 64.160156 83.535156 63.984375 C 83.59375 63.863281 83.601562 63.753906 83.601562 62.796875 L 83.601562 61.738281 L 83.507812 61.5625 C 83.433594 61.421875 83.378906 61.367188 83.238281 61.292969 L 83.058594 61.199219 L 82.003906 61.199219 C 81.046875 61.199219 80.9375 61.207031 80.816406 61.261719 Z M 80.816406 61.261719 "/>
<path style=" stroke:none;fill-rule:nonzero;fill:rgb(0%,0%,0%);fill-opacity:1;" d="M 87.214844 61.261719 C 87.039062 61.34375 86.941406 61.445312 86.863281 61.613281 C 86.808594 61.738281 86.800781 61.847656 86.800781 62.800781 C 86.800781 63.753906 86.808594 63.863281 86.863281 63.988281 C 86.941406 64.152344 87.039062 64.257812 87.214844 64.335938 C 87.335938 64.394531 87.445312 64.398438 88.398438 64.398438 C 89.351562 64.398438 89.464844 64.394531 89.585938 64.335938 C 89.753906 64.261719 89.855469 64.160156 89.9375 63.984375 C 89.992188 63.863281 90 63.753906 90 62.796875 L 90 61.738281 L 89.90625 61.5625 C 89.832031 61.421875 89.78125 61.367188 89.636719 61.292969 L 89.460938 61.199219 L 88.402344 61.199219 C 87.445312 61.199219 87.335938 61.207031 87.214844 61.261719 Z M 87.214844 61.261719 "/>
<path style=" stroke:none;fill-rule:nonzero;fill:rgb(0%,0%,0%);fill-opacity:1;" d="M 36.015625 64.464844 C 35.839844 64.542969 35.738281 64.648438 35.664062 64.8125 C 35.601562 64.945312 35.601562 65.164062 35.601562 70.800781 C 35.601562 76.4375 35.601562 76.652344 35.664062 76.785156 C 35.738281 76.953125 35.839844 77.058594 36.015625 77.136719 C 36.136719 77.191406 36.246094 77.199219 37.199219 77.199219 C 38.152344 77.199219 38.261719 77.191406 38.386719 77.136719 C 38.554688 77.058594 38.65625 76.960938 38.738281 76.785156 C 38.796875 76.65625 38.800781 76.429688 38.800781 70.796875 L 38.800781 64.941406 L 38.707031 64.761719 C 38.632812 64.621094 38.578125 64.566406 38.4375 64.492188 L 38.261719 64.398438 L 37.203125 64.398438 C 36.246094 64.398438 36.136719 64.40625 36.015625 64.464844 Z M 36.015625 64.464844 "/>
<path style=" stroke:none;fill-rule:nonzero;fill:rgb(0%,0%,0%);fill-opacity:1;" d="M 84.015625 64.464844 C 83.839844 64.542969 83.738281 64.648438 83.664062 64.8125 C 83.601562 64.941406 83.601562 65.125 83.601562 69.199219 C 83.601562 73.277344 83.601562 73.457031 83.664062 73.585938 C 83.738281 73.753906 83.839844 73.855469 84.015625 73.9375 C 84.144531 73.996094 84.285156 74 86.800781 74 C 89.3125 74 89.457031 73.996094 89.585938 73.9375 C 89.753906 73.859375 89.855469 73.761719 89.9375 73.582031 C 89.996094 73.457031 90 73.308594 90 70.796875 L 90 68.140625 L 89.90625 67.964844 C 89.832031 67.820312 89.78125 67.765625 89.636719 67.691406 L 89.460938 67.601562 L 88.402344 67.601562 C 87.445312 67.601562 87.335938 67.59375 87.214844 67.535156 C 87.039062 67.457031 86.941406 67.351562 86.863281 67.1875 C 86.808594 67.0625 86.800781 66.953125 86.800781 65.996094 L 86.800781 64.941406 L 86.707031 64.761719 C 86.632812 64.621094 86.578125 64.566406 86.4375 64.492188 L 86.261719 64.398438 L 85.203125 64.398438 C 84.246094 64.398438 84.136719 64.40625 84.015625 64.464844 Z M 84.015625 64.464844 "/>
<path style=" stroke:none;fill-rule:nonzero;fill:rgb(0%,0%,0%);fill-opacity:1;" d="M 10.441406 67.636719 C 10.289062 67.679688 10.078125 67.902344 10.035156 68.058594 C 10.011719 68.152344 10.003906 71.4375 10.007812 78.875 L 10.015625 89.554688 L 10.105469 89.691406 C 10.15625 89.761719 10.253906 89.859375 10.324219 89.902344 L 10.449219 89.984375 L 31.953125 89.984375 L 32.089844 89.894531 C 32.164062 89.84375 32.261719 89.746094 32.304688 89.675781 L 32.382812 89.550781 L 32.382812 68.050781 L 32.304688 67.921875 C 32.261719 67.851562 32.164062 67.757812 32.089844 67.707031 L 31.953125 67.617188 L 21.253906 67.609375 C 14.5625 67.605469 10.511719 67.617188 10.441406 67.636719 Z M 29.003906 70.855469 C 29.214844 70.984375 29.199219 70.371094 29.199219 78.800781 C 29.199219 85.71875 29.191406 86.484375 29.148438 86.582031 C 29.035156 86.816406 29.707031 86.800781 21.199219 86.800781 C 12.769531 86.800781 13.382812 86.816406 13.257812 86.601562 C 13.203125 86.511719 13.199219 86.003906 13.199219 78.800781 C 13.199219 71.75 13.203125 71.085938 13.253906 71.003906 C 13.285156 70.953125 13.347656 70.886719 13.398438 70.855469 C 13.476562 70.808594 14.125 70.804688 21.191406 70.800781 C 28.402344 70.800781 28.914062 70.804688 29.003906 70.855469 Z M 29.003906 70.855469 "/>
<path style=" stroke:none;fill-rule:nonzero;fill:rgb(0%,0%,0%);fill-opacity:1;" d="M 16.855469 74.035156 C 16.703125 74.078125 16.546875 74.21875 16.46875 74.375 L 16.398438 74.523438 L 16.40625 78.835938 L 16.417969 83.148438 L 16.496094 83.277344 C 16.539062 83.347656 16.636719 83.441406 16.710938 83.492188 L 16.847656 83.582031 L 21.148438 83.59375 L 25.457031 83.601562 L 25.636719 83.507812 C 25.78125 83.433594 25.832031 83.378906 25.90625 83.238281 L 26 83.058594 L 26 74.539062 L 25.90625 74.363281 C 25.832031 74.21875 25.78125 74.167969 25.636719 74.09375 L 25.460938 74 L 21.203125 74.003906 C 18.863281 74.003906 16.90625 74.019531 16.855469 74.035156 Z M 16.855469 74.035156 "/>
<path style=" stroke:none;fill-rule:nonzero;fill:rgb(0%,0%,0%);fill-opacity:1;" d="M 80.816406 74.0625 C 80.640625 74.144531 80.539062 74.246094 80.464844 74.414062 C 80.40625 74.535156 80.398438 74.648438 80.398438 75.601562 C 80.398438 76.554688 80.40625 76.664062 80.464844 76.785156 C 80.539062 76.953125 80.640625 77.058594 80.816406 77.136719 C 80.9375 77.191406 81.046875 77.199219 82 77.199219 C 82.953125 77.199219 83.0625 77.191406 83.1875 77.136719 C 83.351562 77.058594 83.457031 76.960938 83.535156 76.785156 C 83.59375 76.664062 83.601562 76.554688 83.601562 75.597656 L 83.601562 74.539062 L 83.507812 74.363281 C 83.433594 74.21875 83.378906 74.167969 83.238281 74.09375 L 83.058594 74 L 82.003906 74 C 81.046875 74 80.9375 74.007812 80.816406 74.0625 Z M 80.816406 74.0625 "/>
<path style=" stroke:none;fill-rule:nonzero;fill:rgb(0%,0%,0%);fill-opacity:1;" d="M 36.015625 80.464844 C 35.839844 80.542969 35.738281 80.648438 35.664062 80.8125 C 35.601562 80.941406 35.601562 81.125 35.601562 85.199219 C 35.601562 89.277344 35.601562 89.457031 35.664062 89.585938 C 35.738281 89.753906 35.839844 89.855469 36.015625 89.9375 C 36.144531 89.996094 36.285156 90 38.800781 90 C 41.3125 90 41.457031 89.996094 41.585938 89.9375 C 41.753906 89.859375 41.855469 89.761719 41.9375 89.582031 C 41.992188 89.464844 42 89.351562 42 88.398438 L 42 87.339844 L 41.90625 87.164062 C 41.832031 87.019531 41.78125 86.964844 41.636719 86.894531 L 41.460938 86.800781 L 40.402344 86.800781 C 39.445312 86.800781 39.335938 86.792969 39.214844 86.738281 C 39.039062 86.65625 38.941406 86.554688 38.863281 86.386719 C 38.808594 86.261719 38.800781 86.152344 38.800781 85.199219 C 38.800781 84.246094 38.808594 84.136719 38.863281 84.011719 C 38.941406 83.847656 39.039062 83.742188 39.214844 83.664062 C 39.335938 83.605469 39.449219 83.601562 40.398438 83.601562 C 41.351562 83.601562 41.464844 83.59375 41.585938 83.535156 C 41.753906 83.460938 41.855469 83.359375 41.9375 83.183594 C 41.992188 83.0625 42 82.953125 42 81.996094 L 42 80.941406 L 41.90625 80.761719 C 41.832031 80.621094 41.78125 80.566406 41.636719 80.492188 L 41.460938 80.398438 L 38.804688 80.398438 C 36.289062 80.398438 36.144531 80.402344 36.015625 80.464844 Z M 36.015625 80.464844 "/>
<path style=" stroke:none;fill-rule:nonzero;fill:rgb(0%,0%,0%);fill-opacity:1;" d="M 48.816406 80.464844 C 48.640625 80.542969 48.539062 80.648438 48.464844 80.8125 C 48.40625 80.9375 48.398438 81.046875 48.398438 82 C 48.398438 82.953125 48.40625 83.0625 48.464844 83.1875 C 48.539062 83.351562 48.640625 83.457031 48.816406 83.535156 C 48.9375 83.59375 49.046875 83.601562 50 83.601562 C 50.953125 83.601562 51.0625 83.59375 51.1875 83.535156 C 51.351562 83.460938 51.457031 83.359375 51.535156 83.183594 C 51.59375 83.0625 51.601562 82.953125 51.601562 81.996094 L 51.601562 80.941406 L 51.507812 80.761719 C 51.433594 80.621094 51.378906 80.566406 51.238281 80.492188 L 51.058594 80.398438 L 50.003906 80.398438 C 49.046875 80.398438 48.9375 80.40625 48.816406 80.464844 Z M 48.816406 80.464844 "/>
<path style=" stroke:none;fill-rule:nonzero;fill:rgb(0%,0%,0%);fill-opacity:1;" d="M 77.617188 80.464844 C 77.441406 80.542969 77.339844 80.648438 77.261719 80.8125 C 77.207031 80.9375 77.199219 81.050781 77.199219 82 C 77.199219 82.949219 77.191406 83.0625 77.136719 83.183594 C 77.058594 83.359375 76.953125 83.460938 76.785156 83.535156 C 76.664062 83.59375 76.550781 83.601562 75.601562 83.601562 C 74.648438 83.601562 74.535156 83.605469 74.417969 83.664062 C 74.238281 83.742188 74.140625 83.847656 74.0625 84.011719 C 74.003906 84.144531 74 84.285156 74 86.800781 C 74 89.3125 74.003906 89.457031 74.0625 89.585938 C 74.140625 89.753906 74.238281 89.855469 74.417969 89.9375 C 74.542969 89.996094 74.6875 90 77.199219 90 C 79.714844 90 79.855469 89.996094 79.988281 89.9375 C 80.152344 89.859375 80.257812 89.761719 80.335938 89.582031 C 80.398438 89.457031 80.398438 89.269531 80.398438 85.195312 L 80.398438 80.941406 L 80.308594 80.761719 C 80.234375 80.621094 80.179688 80.566406 80.035156 80.492188 L 79.859375 80.398438 L 78.804688 80.398438 C 77.847656 80.398438 77.738281 80.40625 77.617188 80.464844 Z M 77.617188 80.464844 "/>
<path style=" stroke:none;fill-rule:nonzero;fill:rgb(0%,0%,0%);fill-opacity:1;" d="M 87.214844 80.464844 C 87.039062 80.542969 86.941406 80.648438 86.863281 80.8125 C 86.804688 80.941406 86.800781 81.085938 86.800781 83.601562 C 86.800781 86.109375 86.796875 86.257812 86.738281 86.382812 C 86.65625 86.558594 86.554688 86.660156 86.386719 86.738281 C 86.261719 86.792969 86.148438 86.800781 85.199219 86.800781 C 84.25 86.800781 84.136719 86.808594 84.015625 86.863281 C 83.839844 86.941406 83.738281 87.046875 83.664062 87.214844 C 83.605469 87.335938 83.601562 87.445312 83.601562 88.398438 C 83.601562 89.351562 83.605469 89.464844 83.664062 89.585938 C 83.738281 89.753906 83.839844 89.855469 84.015625 89.9375 C 84.144531 89.996094 84.285156 90 86.800781 90 C 89.3125 90 89.457031 89.996094 89.585938 89.9375 C 89.753906 89.859375 89.855469 89.761719 89.9375 89.582031 C 89.996094 89.457031 90 89.269531 90 85.195312 L 90 80.941406 L 89.90625 80.761719 C 89.832031 80.621094 89.78125 80.566406 89.636719 80.492188 L 89.460938 80.398438 L 88.402344 80.398438 C 87.445312 80.398438 87.335938 80.40625 87.214844 80.464844 Z M 87.214844 80.464844 "/>
<path style=" stroke:none;fill-rule:nonzero;fill:rgb(0%,0%,0%);fill-opacity:1;" d="M 45.617188 83.664062 C 45.441406 83.742188 45.339844 83.847656 45.261719 84.011719 C 45.207031 84.136719 45.199219 84.246094 45.199219 85.199219 C 45.199219 86.152344 45.207031 86.261719 45.261719 86.386719 C 45.339844 86.554688 45.441406 86.65625 45.617188 86.738281 C 45.738281 86.792969 45.847656 86.800781 46.800781 86.800781 C 47.753906 86.800781 47.863281 86.792969 47.988281 86.738281 C 48.152344 86.660156 48.257812 86.558594 48.335938 86.382812 C 48.394531 86.261719 48.398438 86.152344 48.398438 85.195312 L 48.398438 84.140625 L 48.308594 83.964844 C 48.234375 83.820312 48.179688 83.765625 48.035156 83.691406 L 47.859375 83.601562 L 46.804688 83.601562 C 45.847656 83.601562 45.738281 83.605469 45.617188 83.664062 Z M 45.617188 83.664062 "/>
<path style=" stroke:none;fill-rule:nonzero;fill:rgb(0%,0%,0%);fill-opacity:1;" d="M 55.214844 83.664062 C 55.039062 83.742188 54.941406 83.847656 54.863281 84.011719 C 54.804688 84.144531 54.800781 84.285156 54.800781 86.800781 C 54.800781 89.3125 54.804688 89.457031 54.863281 89.585938 C 54.941406 89.753906 55.039062 89.855469 55.214844 89.9375 C 55.335938 89.992188 55.445312 90 56.398438 90 C 57.351562 90 57.464844 89.992188 57.585938 89.9375 C 57.753906 89.859375 57.855469 89.761719 57.9375 89.582031 C 57.996094 89.457031 58 89.308594 58 86.796875 L 58 84.140625 L 57.90625 83.964844 C 57.832031 83.820312 57.78125 83.765625 57.636719 83.691406 L 57.460938 83.601562 L 56.402344 83.601562 C 55.445312 83.601562 55.335938 83.605469 55.214844 83.664062 Z M 55.214844 83.664062 "/>
</g>
</svg>
