<svg xmlns="http://www.w3.org/2000/svg" xmlns:xlink="http://www.w3.org/1999/xlink" width="64" zoomAndPan="magnify" viewBox="0 0 48 48" height="64" preserveAspectRatio="xMidYMid meet" version="1.0"><defs><clipPath id="50f4543382"><path d="M 5.179688 4.703125 L 42.648438 4.703125 L 42.648438 42.171875 L 5.179688 42.171875 Z M 5.179688 4.703125 " clip-rule="nonzero"/></clipPath><clipPath id="938a7a77e5"><path d="M 32 18 L 34.679688 18 L 34.679688 21 L 32 21 Z M 32 18 " clip-rule="nonzero"/></clipPath><clipPath id="28203958a3"><path d="M 32 12.496094 L 34.679688 12.496094 L 34.679688 15 L 32 15 Z M 32 12.496094 " clip-rule="nonzero"/></clipPath><clipPath id="ead910a24d"><path d="M 14.84375 17 L 31 17 L 31 33.066406 L 14.84375 33.066406 Z M 14.84375 17 " clip-rule="nonzero"/></clipPath></defs><g clip-path="url(#50f4543382)"><path fill="#f49a18" d="M 35.625 42.171875 L 12.207031 42.171875 C 8.324219 42.171875 5.179688 39.027344 5.179688 35.144531 L 5.179688 11.726562 C 5.179688 7.847656 8.324219 4.703125 12.207031 4.703125 L 35.625 4.703125 C 39.503906 4.703125 42.648438 7.847656 42.648438 11.726562 L 42.648438 35.144531 C 42.648438 39.027344 39.503906 42.171875 35.625 42.171875 Z M 35.625 42.171875 " fill-opacity="1" fill-rule="nonzero"/></g><path fill="#f49a18" d="M 23.914062 14.070312 C 18.75 14.070312 14.546875 18.273438 14.546875 23.4375 C 14.546875 28.601562 18.75 32.804688 23.914062 32.804688 C 29.082031 32.804688 33.28125 28.601562 33.28125 23.4375 C 33.28125 18.273438 29.082031 14.070312 23.914062 14.070312 Z M 28.269531 28.410156 C 27.753906 28.773438 27.144531 28.902344 26.519531 28.902344 C 25.730469 28.902344 24.925781 28.695312 24.285156 28.492188 C 23.019531 28.097656 21.851562 27.390625 20.90625 26.445312 C 19.636719 25.175781 18.769531 23.480469 18.527344 21.789062 C 18.417969 21.015625 18.355469 20.023438 18.855469 19.214844 C 19.324219 18.449219 20.171875 17.972656 21.074219 17.972656 C 21.230469 17.972656 21.378906 17.988281 21.523438 18.011719 C 22.105469 18.113281 22.539062 18.578125 22.621094 19.167969 L 22.933594 21.515625 C 23.011719 22.09375 22.726562 22.644531 22.21875 22.902344 C 22.460938 23.378906 22.777344 23.808594 23.15625 24.191406 C 23.539062 24.574219 23.972656 24.890625 24.445312 25.132812 C 24.703125 24.632812 25.265625 24.339844 25.835938 24.417969 L 28.183594 24.730469 C 28.773438 24.8125 29.238281 25.246094 29.335938 25.816406 C 29.363281 25.96875 29.378906 26.121094 29.378906 26.277344 C 29.378906 27.128906 28.964844 27.925781 28.269531 28.410156 Z M 28.269531 28.410156 " fill-opacity="1" fill-rule="nonzero"/><path fill="#000000" d="M 31.441406 18.519531 L 29.621094 18.519531 C 28.960938 18.519531 28.425781 17.96875 28.425781 17.289062 L 28.425781 15.410156 C 28.425781 14.726562 28.960938 14.175781 29.621094 14.175781 L 31.441406 14.175781 C 32.101562 14.175781 32.636719 14.726562 32.636719 15.410156 L 32.636719 17.289062 C 32.636719 17.96875 32.101562 18.519531 31.441406 18.519531 " fill-opacity="1" fill-rule="nonzero"/><g clip-path="url(#938a7a77e5)"><path fill="#000000" d="M 34.089844 20.660156 L 33.191406 20.660156 C 32.867188 20.660156 32.605469 20.386719 32.605469 20.050781 L 32.605469 19.125 C 32.605469 18.792969 32.867188 18.519531 33.191406 18.519531 L 34.089844 18.519531 C 34.417969 18.519531 34.679688 18.792969 34.679688 19.125 L 34.679688 20.050781 C 34.679688 20.386719 34.417969 20.660156 34.089844 20.660156 " fill-opacity="1" fill-rule="nonzero"/></g><g clip-path="url(#28203958a3)"><path fill="#000000" d="M 33.871094 14.273438 L 33.125 14.273438 C 32.855469 14.273438 32.636719 14.050781 32.636719 13.773438 L 32.636719 13.003906 C 32.636719 12.726562 32.855469 12.5 33.125 12.5 L 33.871094 12.5 C 34.140625 12.5 34.359375 12.726562 34.359375 13.003906 L 34.359375 13.773438 C 34.359375 14.050781 34.140625 14.273438 33.871094 14.273438 " fill-opacity="1" fill-rule="nonzero"/></g><g clip-path="url(#ead910a24d)"><path fill="#000000" d="M 26.773438 29.082031 C 26.773438 29.105469 26.746094 29.113281 26.730469 29.101562 L 24.253906 26.585938 C 24.246094 26.582031 24.246094 26.574219 24.246094 26.570312 L 24.246094 26.132812 C 24.242188 26.128906 24.242188 26.128906 24.238281 26.128906 L 24.210938 24.359375 C 24.210938 23.78125 24.039062 23.339844 23.703125 23.039062 C 23.363281 22.738281 22.859375 22.585938 22.191406 22.585938 C 21.675781 22.585938 21.222656 22.632812 20.832031 22.722656 C 20.769531 22.738281 20.710938 22.75 20.648438 22.769531 C 20.636719 22.769531 20.628906 22.769531 20.625 22.761719 L 19.039062 21.003906 C 19.027344 20.988281 19.03125 20.96875 19.046875 20.960938 C 19.523438 20.757812 20.023438 20.585938 20.542969 20.453125 C 21.105469 20.308594 21.78125 20.234375 22.578125 20.234375 C 24.039062 20.234375 25.105469 20.605469 25.773438 21.339844 C 26.4375 22.074219 26.773438 23.101562 26.773438 24.414062 Z M 26.773438 30.015625 C 26.773438 30.027344 26.761719 30.039062 26.75 30.039062 L 24.214844 30.039062 C 24.203125 30.039062 24.191406 30.027344 24.191406 30.015625 L 24.191406 29.050781 C 24.191406 29.03125 24.167969 29.019531 24.152344 29.035156 C 23.832031 29.386719 23.453125 29.671875 23.015625 29.882812 C 22.5625 30.109375 22.003906 30.21875 21.351562 30.21875 C 20.90625 30.21875 20.488281 30.15625 20.09375 30.027344 C 19.703125 29.902344 19.359375 29.710938 19.066406 29.460938 C 18.777344 29.207031 18.546875 28.894531 18.375 28.527344 C 18.207031 28.160156 18.121094 27.734375 18.121094 27.253906 L 18.121094 27.21875 C 18.121094 26.6875 18.214844 26.226562 18.402344 25.84375 C 18.589844 25.457031 18.847656 25.136719 19.183594 24.882812 C 19.515625 24.628906 19.914062 24.441406 20.375 24.3125 C 20.382812 24.3125 20.390625 24.308594 20.402344 24.308594 C 20.835938 24.191406 21.316406 24.128906 21.84375 24.125 C 21.847656 24.125 21.855469 24.128906 21.859375 24.132812 L 22.863281 25.179688 L 23.386719 25.722656 L 23.488281 25.828125 C 23.503906 25.847656 23.488281 25.875 23.464844 25.871094 C 23.175781 25.804688 22.871094 25.769531 22.542969 25.769531 C 22.335938 25.769531 22.144531 25.785156 21.96875 25.816406 C 21.660156 25.867188 21.402344 25.96875 21.191406 26.113281 C 20.863281 26.34375 20.699219 26.675781 20.699219 27.109375 L 20.699219 27.144531 C 20.699219 27.519531 20.835938 27.808594 21.105469 28.011719 C 21.371094 28.21875 21.722656 28.320312 22.15625 28.320312 C 22.789062 28.320312 23.292969 28.164062 23.675781 27.851562 C 23.84375 27.710938 23.972656 27.554688 24.066406 27.378906 C 24.074219 27.367188 24.089844 27.363281 24.101562 27.371094 L 26.761719 29.3125 C 26.769531 29.316406 26.773438 29.324219 26.773438 29.332031 Z M 24.886719 17.390625 L 20.007812 17.390625 C 17.15625 17.390625 14.84375 19.773438 14.84375 22.714844 L 14.84375 27.742188 C 14.84375 30.679688 17.15625 33.0625 20.007812 33.0625 L 24.886719 33.0625 C 27.738281 33.0625 30.050781 30.679688 30.050781 27.742188 L 30.050781 22.714844 C 30.050781 19.773438 27.738281 17.390625 24.886719 17.390625 " fill-opacity="1" fill-rule="nonzero"/></g></svg>