<svg xmlns="http://www.w3.org/2000/svg" xmlns:xlink="http://www.w3.org/1999/xlink" width="110" zoomAndPan="magnify" viewBox="0 0 82.5 32.249999" height="43" preserveAspectRatio="xMidYMid meet" version="1.0"><defs><g/><clipPath id="4c189f8a63"><path d="M 0.691406 0 L 81.316406 0 L 81.316406 31.515625 L 0.691406 31.515625 Z M 0.691406 0 " clip-rule="nonzero"/></clipPath><clipPath id="7f07590bb7"><path d="M 26 10 L 29.671875 10 L 29.671875 13 L 26 13 Z M 26 10 " clip-rule="nonzero"/></clipPath><clipPath id="502787a669"><path d="M 27 2.328125 L 29.671875 2.328125 L 29.671875 5 L 27 5 Z M 27 2.328125 " clip-rule="nonzero"/></clipPath><clipPath id="be92a79f74"><path d="M 3.863281 8 L 24 8 L 24 28.875 L 3.863281 28.875 Z M 3.863281 8 " clip-rule="nonzero"/></clipPath></defs><g clip-path="url(#4c189f8a63)"><path fill="#ffffff" d="M 0.691406 0 L 81.808594 0 L 81.808594 39.082031 L 0.691406 39.082031 Z M 0.691406 0 " fill-opacity="1" fill-rule="nonzero"/><path fill="#ffffff" d="M 0.691406 0 L 81.808594 0 L 81.808594 31.707031 L 0.691406 31.707031 Z M 0.691406 0 " fill-opacity="1" fill-rule="nonzero"/><path fill="#000000" d="M 0.691406 0 L 81.808594 0 L 81.808594 31.707031 L 0.691406 31.707031 Z M 0.691406 0 " fill-opacity="1" fill-rule="nonzero"/></g><path fill="#dba810" d="M 25.460938 10.097656 L 23.089844 10.097656 C 22.230469 10.097656 21.53125 9.386719 21.53125 8.507812 L 21.53125 6.085938 C 21.53125 5.207031 22.230469 4.496094 23.089844 4.496094 L 25.460938 4.496094 C 26.320312 4.496094 27.015625 5.207031 27.015625 6.085938 L 27.015625 8.507812 C 27.015625 9.386719 26.320312 10.097656 25.460938 10.097656 " fill-opacity="1" fill-rule="nonzero"/><g clip-path="url(#7f07590bb7)"><path fill="#dba810" d="M 28.90625 12.859375 L 27.738281 12.859375 C 27.3125 12.859375 26.96875 12.507812 26.96875 12.078125 L 26.96875 10.882812 C 26.96875 10.449219 27.3125 10.097656 27.738281 10.097656 L 28.90625 10.097656 C 29.328125 10.097656 29.671875 10.449219 29.671875 10.882812 L 29.671875 12.078125 C 29.671875 12.507812 29.328125 12.859375 28.90625 12.859375 " fill-opacity="1" fill-rule="nonzero"/></g><g clip-path="url(#502787a669)"><path fill="#dba810" d="M 28.621094 4.621094 L 27.652344 4.621094 C 27.300781 4.621094 27.015625 4.332031 27.015625 3.972656 L 27.015625 2.980469 C 27.015625 2.621094 27.300781 2.332031 27.652344 2.332031 L 28.621094 2.332031 C 28.972656 2.332031 29.253906 2.621094 29.253906 2.980469 L 29.253906 3.972656 C 29.253906 4.332031 28.972656 4.621094 28.621094 4.621094 " fill-opacity="1" fill-rule="nonzero"/></g><g clip-path="url(#be92a79f74)"><path fill="#dba810" d="M 19.382812 23.730469 C 19.382812 23.757812 19.351562 23.773438 19.332031 23.753906 L 16.105469 20.511719 C 16.097656 20.503906 16.09375 20.496094 16.09375 20.488281 L 16.09375 19.921875 C 16.09375 19.921875 16.089844 19.921875 16.085938 19.917969 L 16.050781 17.636719 C 16.050781 16.890625 15.828125 16.320312 15.386719 15.933594 C 14.945312 15.542969 14.292969 15.347656 13.425781 15.347656 C 12.753906 15.347656 12.164062 15.40625 11.65625 15.523438 C 11.574219 15.542969 11.496094 15.5625 11.414062 15.582031 C 11.402344 15.585938 11.390625 15.582031 11.382812 15.574219 L 9.320312 13.304688 C 9.304688 13.289062 9.308594 13.261719 9.332031 13.253906 C 9.953125 12.988281 10.601562 12.765625 11.277344 12.59375 C 12.007812 12.410156 12.890625 12.316406 13.925781 12.316406 C 15.828125 12.316406 17.214844 12.789062 18.082031 13.738281 C 18.949219 14.6875 19.382812 16.011719 19.382812 17.707031 Z M 19.382812 24.933594 C 19.382812 24.949219 19.371094 24.964844 19.351562 24.964844 L 16.058594 24.964844 C 16.042969 24.964844 16.027344 24.949219 16.027344 24.933594 L 16.027344 23.691406 C 16.027344 23.664062 15.992188 23.648438 15.972656 23.671875 C 15.558594 24.125 15.066406 24.492188 14.496094 24.765625 C 13.902344 25.054688 13.179688 25.199219 12.328125 25.199219 C 11.75 25.199219 11.207031 25.117188 10.695312 24.953125 C 10.1875 24.789062 9.742188 24.542969 9.359375 24.21875 C 8.980469 23.890625 8.679688 23.492188 8.457031 23.015625 C 8.238281 22.542969 8.128906 21.992188 8.128906 21.371094 L 8.128906 21.324219 C 8.128906 20.640625 8.25 20.046875 8.492188 19.550781 C 8.734375 19.050781 9.074219 18.640625 9.507812 18.3125 C 9.941406 17.984375 10.460938 17.742188 11.0625 17.578125 C 11.074219 17.574219 11.082031 17.570312 11.09375 17.570312 C 11.664062 17.417969 12.289062 17.339844 12.96875 17.332031 C 12.976562 17.332031 12.988281 17.335938 12.992188 17.34375 L 14.300781 18.695312 L 14.980469 19.398438 L 15.109375 19.53125 C 15.128906 19.554688 15.109375 19.59375 15.078125 19.585938 C 14.707031 19.5 14.308594 19.457031 13.878906 19.457031 C 13.609375 19.457031 13.363281 19.476562 13.132812 19.515625 C 12.730469 19.582031 12.394531 19.710938 12.125 19.898438 C 11.695312 20.195312 11.484375 20.625 11.484375 21.183594 L 11.484375 21.230469 C 11.484375 21.714844 11.660156 22.085938 12.007812 22.351562 C 12.359375 22.613281 12.816406 22.746094 13.378906 22.746094 C 14.199219 22.746094 14.859375 22.546875 15.355469 22.140625 C 15.570312 21.960938 15.742188 21.761719 15.863281 21.53125 C 15.871094 21.515625 15.894531 21.511719 15.90625 21.523438 L 19.371094 24.027344 C 19.378906 24.03125 19.382812 24.042969 19.382812 24.050781 Z M 16.929688 8.644531 L 10.582031 8.644531 C 6.871094 8.644531 3.863281 11.71875 3.863281 15.511719 L 3.863281 22 C 3.863281 25.792969 6.871094 28.867188 10.582031 28.867188 L 16.929688 28.867188 C 20.640625 28.867188 23.648438 25.792969 23.648438 22 L 23.648438 15.511719 C 23.648438 11.71875 20.640625 8.644531 16.929688 8.644531 " fill-opacity="1" fill-rule="nonzero"/></g><g fill="#ffffff" fill-opacity="1"><g transform="translate(24.66493, 23.536233)"><g><path d="M 8.128906 0.0273438 L 8.652344 -0.015625 L 8.914062 0.015625 L 9.339844 0 L 9.726562 -0.0703125 L 9.765625 -0.398438 L 9.671875 -0.714844 L 9.464844 -1.226562 L 9.09375 -1.941406 L 8.898438 -2.453125 L 8.625 -2.949219 L 8.101562 -4.203125 L 7.960938 -4.410156 L 7.824219 -4.671875 L 7.742188 -4.972656 L 7.617188 -5.179688 L 7.535156 -5.398438 L 7.246094 -5.910156 L 7.148438 -6.199219 L 6.242188 -8.113281 L 6.15625 -8.390625 L 6.007812 -8.636719 L 5.921875 -8.886719 L 5.660156 -9.367188 L 5.429688 -9.617188 L 4.972656 -9.753906 L 4.53125 -9.601562 L 4.285156 -9.367188 L 4.160156 -9.132812 L 4.0625 -8.859375 L 3.941406 -8.664062 L 3.390625 -7.398438 L 3.238281 -7.191406 L 3.167969 -6.914062 L 3.015625 -6.652344 L 2.933594 -6.40625 L 1.527344 -3.457031 L 1.445312 -3.15625 L 1.308594 -2.949219 L 1.210938 -2.671875 L 0.964844 -2.230469 L 0.757812 -1.679688 L 0.605469 -1.488281 L 0.539062 -1.238281 L 0.261719 -0.6875 L 0.179688 -0.414062 L 0.246094 -0.0703125 L 0.523438 0.015625 L 1.0625 -0.015625 L 1.335938 0.015625 L 2.109375 -0.015625 L 2.425781 -0.109375 L 2.6875 -0.359375 L 2.933594 -0.8125 L 3.195312 -1.074219 L 3.484375 -1.226562 L 3.746094 -1.183594 L 4.324219 -1.238281 L 4.574219 -1.199219 L 5.921875 -1.210938 L 6.171875 -1.183594 L 6.476562 -1.226562 L 6.777344 -1.074219 L 7.039062 -0.855469 L 7.164062 -0.59375 L 7.246094 -0.34375 L 7.523438 -0.136719 L 7.839844 0 Z M 5 -3.402344 L 4.726562 -3.457031 L 4.410156 -3.429688 L 4.1875 -3.527344 L 4.175781 -3.789062 L 4.820312 -5.277344 L 4.972656 -5.398438 L 5.164062 -5.289062 L 5.8125 -3.773438 L 5.757812 -3.527344 L 5.550781 -3.417969 Z M 5 -3.402344 "/></g></g></g><g fill="#ffffff" fill-opacity="1"><g transform="translate(34.665916, 23.536233)"><g><path d="M 8.128906 -0.234375 L 8.5 -0.015625 L 8.886719 0.0273438 L 9.1875 -0.0703125 L 9.328125 -0.34375 L 9.355469 -5.371094 L 9.3125 -5.605469 L 9.3125 -6.96875 L 9.355469 -7.300781 L 9.3125 -9.214844 L 9.175781 -9.492188 L 8.898438 -9.644531 L 7.191406 -9.628906 L 6.929688 -9.476562 L 6.777344 -9.1875 L 6.765625 -8.898438 L 6.804688 -8.679688 L 6.765625 -8.101562 L 6.792969 -7.796875 L 6.765625 -5.332031 L 6.679688 -5.097656 L 6.476562 -5.195312 L 5.496094 -6.171875 L 5.109375 -6.476562 L 2.398438 -9.214844 L 2.191406 -9.382812 L 1.875 -9.546875 L 1.460938 -9.644531 L 1.144531 -9.503906 L 1.019531 -9.242188 L 1.019531 -5.070312 L 1.003906 -4.835938 L 1.03125 -4.269531 L 0.992188 -4.035156 L 1.019531 -1.777344 L 0.992188 -1.515625 L 1.019531 -0.359375 L 1.144531 -0.0976562 L 1.433594 0 L 1.996094 0.0273438 L 2.300781 0 L 2.835938 0.0429688 L 3.128906 0.0273438 L 3.402344 -0.109375 L 3.539062 -0.539062 L 3.554688 -4.023438 L 3.582031 -4.296875 L 3.679688 -4.53125 L 3.855469 -4.464844 L 4.035156 -4.230469 L 5.015625 -3.292969 L 5.195312 -3.085938 L 5.429688 -2.933594 L 7.5625 -0.8125 L 7.921875 -0.414062 Z M 8.128906 -0.234375 "/></g></g></g><g fill="#ffffff" fill-opacity="1"><g transform="translate(45.052612, 23.536233)"><g><path d="M 3.59375 0.0273438 L 4.519531 0 L 4.917969 -0.136719 L 5.054688 -0.523438 L 5.097656 -1.238281 L 5.054688 -1.761719 L 5.082031 -2.050781 L 5.070312 -2.605469 L 5.097656 -2.851562 L 5.054688 -3.15625 L 5.082031 -5.371094 L 5.042969 -5.660156 L 5.082031 -6.859375 L 5.195312 -7.273438 L 5.457031 -7.4375 L 5.992188 -7.464844 L 6.503906 -7.398438 L 6.792969 -7.4375 L 7.039062 -7.425781 L 7.273438 -7.578125 L 7.4375 -7.878906 L 7.453125 -9.1875 L 7.300781 -9.464844 L 7.039062 -9.644531 L 6.183594 -9.644531 L 5.921875 -9.671875 L 5.632812 -9.628906 L 5.371094 -9.65625 L 4.257812 -9.601562 L 3.980469 -9.65625 L 3.71875 -9.671875 L 3.429688 -9.628906 L 3.128906 -9.65625 L 2.878906 -9.601562 L 2.066406 -9.644531 L 1.640625 -9.601562 L 0.675781 -9.65625 L 0.414062 -9.519531 L 0.246094 -9.203125 L 0.261719 -8.925781 L 0.234375 -8.238281 L 0.261719 -7.8125 L 0.386719 -7.5625 L 0.632812 -7.425781 L 0.910156 -7.453125 L 2.21875 -7.425781 L 2.480469 -7.289062 L 2.632812 -7.011719 L 2.605469 -6.570312 L 2.632812 -6.183594 L 2.617188 -5.882812 L 2.632812 -5.605469 L 2.605469 -5.222656 L 2.644531 -3.167969 L 2.617188 -2.894531 L 2.605469 -1.777344 L 2.632812 -1.488281 L 2.617188 -0.6875 L 2.589844 -0.425781 L 2.769531 -0.125 L 3.167969 0.015625 Z M 3.59375 0.0273438 "/></g></g></g><g fill="#ffffff" fill-opacity="1"><g transform="translate(52.753094, 23.536233)"><g><path d="M 5.523438 0.179688 L 6.75 0.0546875 L 7.273438 -0.109375 L 8.5 -0.660156 L 9.464844 -1.585938 L 9.644531 -1.832031 L 10.179688 -2.78125 L 10.277344 -3.042969 L 10.316406 -3.320312 L 10.402344 -3.539062 L 10.457031 -3.84375 L 10.523438 -4.808594 L 10.457031 -5.757812 L 10.347656 -6.269531 L 10.234375 -6.558594 L 10.167969 -6.875 L 9.917969 -7.328125 L 9.824219 -7.578125 L 9.644531 -7.8125 L 9.476562 -7.976562 L 9.296875 -8.222656 L 8.707031 -8.761719 L 8.003906 -9.203125 L 6.199219 -9.765625 L 5.550781 -9.78125 L 4.585938 -9.726562 L 4.3125 -9.671875 L 4.035156 -9.589844 L 3.789062 -9.476562 L 3.265625 -9.339844 L 2.5625 -8.898438 L 2.371094 -8.734375 L 1.929688 -8.429688 L 1.558594 -8.019531 L 1.089844 -7.328125 L 0.964844 -7.09375 L 0.703125 -6.335938 L 0.59375 -5.746094 L 0.539062 -4.148438 L 0.6875 -3.277344 L 0.894531 -2.808594 L 0.976562 -2.519531 L 1.117188 -2.273438 L 1.761719 -1.390625 L 2.148438 -1.019531 L 2.328125 -0.8125 L 3.265625 -0.316406 L 3.527344 -0.207031 L 4.699219 0.136719 Z M 5.136719 -2.246094 L 4.863281 -2.34375 L 4.613281 -2.371094 L 4.148438 -2.617188 L 3.71875 -2.988281 L 3.582031 -3.183594 L 3.402344 -3.375 L 3.140625 -4.148438 L 3.070312 -4.835938 L 3.085938 -5.25 L 3.183594 -5.757812 L 3.265625 -6.007812 L 3.429688 -6.199219 L 3.554688 -6.433594 L 3.734375 -6.652344 L 3.941406 -6.832031 L 4.339844 -7.109375 L 4.585938 -7.230469 L 4.875 -7.300781 L 5.511719 -7.355469 L 6.171875 -7.316406 L 6.902344 -7 L 7.328125 -6.679688 L 7.644531 -6.214844 L 7.757812 -5.964844 L 7.839844 -5.691406 L 7.933594 -5.441406 L 7.988281 -4.847656 L 7.90625 -4.160156 L 7.785156 -3.59375 L 7.632812 -3.390625 L 7.507812 -3.183594 L 7.34375 -2.933594 L 6.914062 -2.605469 L 6.667969 -2.492188 L 6.445312 -2.371094 L 6.199219 -2.34375 L 5.9375 -2.273438 Z M 5.136719 -2.246094 "/></g></g></g><g fill="#ffffff" fill-opacity="1"><g transform="translate(63.801013, 23.536233)"><g><path d="M 1.003906 -0.398438 L 1.144531 -0.136719 L 1.445312 0 L 2.410156 0.0429688 L 3.097656 -0.015625 L 3.390625 -0.136719 L 3.554688 -0.550781 L 3.511719 -0.992188 L 3.539062 -1.253906 L 3.527344 -2.714844 L 3.652344 -2.988281 L 3.925781 -3.113281 L 4.230469 -3.140625 L 4.519531 -3.085938 L 4.792969 -3.140625 L 5.070312 -3.113281 L 5.359375 -3.128906 L 5.632812 -3.097656 L 6.199219 -3.128906 L 6.488281 -3.265625 L 6.625 -3.691406 L 6.613281 -4.917969 L 6.476562 -5.195312 L 6.183594 -5.304688 L 5.511719 -5.332031 L 4.78125 -5.277344 L 4.242188 -5.34375 L 3.941406 -5.332031 L 3.664062 -5.441406 L 3.511719 -5.730469 L 3.511719 -6.117188 L 3.539062 -6.378906 L 3.511719 -7 L 3.652344 -7.273438 L 3.914062 -7.453125 L 4.351562 -7.453125 L 4.753906 -7.425781 L 5 -7.4375 L 5.277344 -7.425781 L 5.566406 -7.453125 L 6.613281 -7.425781 L 6.886719 -7.5625 L 7.027344 -7.839844 L 7 -8.542969 L 7.027344 -9.066406 L 6.859375 -9.476562 L 6.625 -9.628906 L 5.800781 -9.617188 L 5.496094 -9.65625 L 4.960938 -9.628906 L 4.710938 -9.65625 L 4.296875 -9.628906 L 4.023438 -9.644531 L 3.59375 -9.617188 L 3.058594 -9.617188 L 2.808594 -9.644531 L 2.109375 -9.644531 L 1.820312 -9.617188 L 1.433594 -9.628906 L 1.128906 -9.476562 L 1.046875 -9.230469 L 1.003906 -8.664062 L 1.046875 -8.25 L 0.992188 -6.707031 L 1.019531 -6.476562 L 1.03125 -6.183594 L 1.003906 -5.9375 L 1.03125 -5.621094 L 1.003906 -5.371094 L 0.992188 -5.109375 L 1.019531 -4.847656 L 0.992188 -4.53125 Z M 1.003906 -0.398438 "/></g></g></g><g fill="#ffffff" fill-opacity="1"><g transform="translate(71.30864, 23.536233)"><g><path d="M 3.15625 -0.414062 L 3.265625 -0.109375 L 3.554688 0 L 3.828125 0.015625 L 4.078125 -0.015625 L 4.503906 0.015625 L 4.890625 -0.015625 L 5.164062 0.015625 L 5.441406 -0.136719 L 5.550781 -0.425781 L 5.59375 -2.023438 L 5.566406 -2.300781 L 5.566406 -2.574219 L 5.605469 -2.824219 L 5.59375 -3.625 L 5.675781 -4.023438 L 5.8125 -4.378906 L 7.5625 -7.261719 L 7.726562 -7.453125 L 8.609375 -8.914062 L 8.761719 -9.257812 L 8.707031 -9.558594 L 8.457031 -9.617188 L 7.921875 -9.628906 L 7.632812 -9.601562 L 7.355469 -9.644531 L 6.820312 -9.628906 L 6.585938 -9.644531 L 6.214844 -9.503906 L 5.964844 -9.269531 L 5.605469 -8.679688 L 5.441406 -8.265625 L 5.136719 -7.824219 L 5 -7.535156 L 4.863281 -7.300781 L 4.628906 -6.777344 L 4.449219 -6.542969 L 4.296875 -6.542969 L 4.148438 -6.804688 L 3.996094 -7.027344 L 3.582031 -7.796875 L 3.429688 -8.03125 L 2.78125 -9.242188 L 2.492188 -9.503906 L 2.175781 -9.628906 L 1.886719 -9.617188 L 1.652344 -9.671875 L 0.949219 -9.617188 L 0.316406 -9.65625 L 0.0429688 -9.519531 L 0 -9.214844 L 0.136719 -8.898438 L 0.730469 -7.921875 L 0.882812 -7.726562 L 1.445312 -6.75 L 1.777344 -6.308594 L 1.886719 -6.0625 L 2.949219 -4.378906 L 3.085938 -3.996094 L 3.15625 -3.625 L 3.140625 -2.535156 L 3.167969 -2.257812 L 3.140625 -1.199219 L 3.167969 -0.9375 Z M 3.15625 -0.414062 "/></g></g></g></svg>