<svg xmlns="http://www.w3.org/2000/svg" xmlns:xlink="http://www.w3.org/1999/xlink" width="110" zoomAndPan="magnify" viewBox="0 0 82.5 32.249999" height="43" preserveAspectRatio="xMidYMid meet" version="1.0"><defs><clipPath id="c089b922ea"><path d="M 30 9 L 33.433594 9 L 33.433594 13 L 30 13 Z M 30 9 " clip-rule="nonzero"/></clipPath><clipPath id="83736af8a2"><path d="M 1.726562 7 L 27 7 L 27 31.515625 L 1.726562 31.515625 Z M 1.726562 7 " clip-rule="nonzero"/></clipPath></defs><path fill="#dba810" d="M 28.257812 9.261719 L 25.34375 9.261719 C 24.289062 9.261719 23.433594 8.414062 23.433594 7.363281 L 23.433594 4.46875 C 23.433594 3.421875 24.289062 2.570312 25.34375 2.570312 L 28.257812 2.570312 C 29.3125 2.570312 30.167969 3.421875 30.167969 4.46875 L 30.167969 7.363281 C 30.167969 8.414062 29.3125 9.261719 28.257812 9.261719 " fill-opacity="1" fill-rule="nonzero"/><g clip-path="url(#c089b922ea)"><path fill="#dba810" d="M 32.492188 12.5625 L 31.054688 12.5625 C 30.535156 12.5625 30.113281 12.144531 30.113281 11.625 L 30.113281 10.199219 C 30.113281 9.683594 30.535156 9.261719 31.054688 9.261719 L 32.492188 9.261719 C 33.011719 9.261719 33.433594 9.683594 33.433594 10.199219 L 33.433594 11.625 C 33.433594 12.144531 33.011719 12.5625 32.492188 12.5625 " fill-opacity="1" fill-rule="nonzero"/></g><path fill="#dba810" d="M 32.140625 2.722656 L 30.949219 2.722656 C 30.519531 2.722656 30.167969 2.375 30.167969 1.945312 L 30.167969 0.761719 C 30.167969 0.332031 30.519531 -0.015625 30.949219 -0.015625 L 32.140625 -0.015625 C 32.570312 -0.015625 32.921875 0.332031 32.921875 0.761719 L 32.921875 1.945312 C 32.921875 2.375 32.570312 2.722656 32.140625 2.722656 " fill-opacity="1" fill-rule="nonzero"/><g clip-path="url(#83736af8a2)"><path fill="#dba810" d="M 20.792969 25.546875 C 20.792969 25.578125 20.75 25.597656 20.726562 25.574219 L 16.765625 21.699219 C 16.757812 21.691406 16.753906 21.683594 16.753906 21.671875 L 16.753906 20.996094 C 16.75 20.996094 16.746094 20.996094 16.742188 20.992188 L 16.695312 18.265625 C 16.695312 17.375 16.425781 16.695312 15.882812 16.230469 C 15.339844 15.765625 14.535156 15.535156 13.472656 15.535156 C 12.648438 15.535156 11.921875 15.605469 11.296875 15.742188 C 11.199219 15.765625 11.101562 15.789062 11 15.8125 C 10.988281 15.816406 10.972656 15.8125 10.964844 15.800781 L 8.429688 13.089844 C 8.410156 13.070312 8.417969 13.039062 8.441406 13.03125 C 9.207031 12.710938 10.003906 12.449219 10.835938 12.246094 C 11.730469 12.023438 12.816406 11.910156 14.089844 11.910156 C 16.425781 11.910156 18.128906 12.476562 19.195312 13.609375 C 20.257812 14.746094 20.792969 16.324219 20.792969 18.351562 Z M 20.792969 26.980469 C 20.792969 27.003906 20.773438 27.019531 20.753906 27.019531 L 16.707031 27.019531 C 16.6875 27.019531 16.667969 27.003906 16.667969 26.980469 L 16.667969 25.5 C 16.667969 25.464844 16.625 25.449219 16.601562 25.472656 C 16.09375 26.015625 15.488281 26.453125 14.789062 26.78125 C 14.058594 27.125 13.171875 27.296875 12.125 27.296875 C 11.414062 27.296875 10.746094 27.199219 10.121094 27.003906 C 9.492188 26.8125 8.945312 26.515625 8.476562 26.128906 C 8.011719 25.738281 7.640625 25.257812 7.371094 24.691406 C 7.097656 24.125 6.964844 23.46875 6.964844 22.726562 L 6.964844 22.671875 C 6.964844 21.851562 7.113281 21.148438 7.410156 20.550781 C 7.710938 19.957031 8.128906 19.464844 8.660156 19.074219 C 9.195312 18.683594 9.828125 18.390625 10.566406 18.195312 C 10.582031 18.191406 10.59375 18.1875 10.609375 18.1875 C 11.304688 18.003906 12.074219 17.910156 12.914062 17.902344 C 12.921875 17.902344 12.933594 17.90625 12.941406 17.914062 L 14.546875 19.53125 L 15.378906 20.371094 L 15.539062 20.53125 C 15.566406 20.558594 15.542969 20.601562 15.503906 20.59375 C 15.046875 20.492188 14.554688 20.441406 14.03125 20.441406 C 13.699219 20.441406 13.394531 20.464844 13.113281 20.511719 C 12.621094 20.589844 12.207031 20.746094 11.871094 20.96875 C 11.347656 21.324219 11.085938 21.835938 11.085938 22.503906 L 11.085938 22.558594 C 11.085938 23.136719 11.300781 23.582031 11.730469 23.898438 C 12.160156 24.214844 12.722656 24.371094 13.414062 24.371094 C 14.425781 24.371094 15.234375 24.128906 15.839844 23.644531 C 16.109375 23.433594 16.316406 23.191406 16.46875 22.921875 C 16.476562 22.902344 16.503906 22.894531 16.523438 22.90625 L 20.777344 25.898438 C 20.785156 25.90625 20.792969 25.917969 20.792969 25.929688 Z M 17.777344 7.527344 L 9.980469 7.527344 C 5.421875 7.527344 1.726562 11.199219 1.726562 15.730469 L 1.726562 23.480469 C 1.726562 28.007812 5.421875 31.683594 9.980469 31.683594 L 17.777344 31.683594 C 22.335938 31.683594 26.03125 28.007812 26.03125 23.480469 L 26.03125 15.730469 C 26.03125 11.199219 22.335938 7.527344 17.777344 7.527344 " fill-opacity="1" fill-rule="nonzero"/></g></svg>