<svg xmlns="http://www.w3.org/2000/svg" xmlns:xlink="http://www.w3.org/1999/xlink" width="100" zoomAndPan="magnify" viewBox="0 0 75 30.000001" height="40" preserveAspectRatio="xMidYMid meet" version="1.0"><defs><g/><clipPath id="46a06bc8bf"><path d="M 19 10 L 21.960938 10 L 21.960938 13 L 19 13 Z M 19 10 " clip-rule="nonzero"/></clipPath><clipPath id="22f56f248b"><path d="M 20 4.785156 L 21.960938 4.785156 L 21.960938 7 L 20 7 Z M 20 4.785156 " clip-rule="nonzero"/></clipPath><clipPath id="4745d797ee"><path d="M 3.089844 9 L 18 9 L 18 23.65625 L 3.089844 23.65625 Z M 3.089844 9 " clip-rule="nonzero"/></clipPath></defs><path fill="#a6a6a6" d="M 18.878906 10.3125 L 17.148438 10.3125 C 16.519531 10.3125 16.007812 9.804688 16.007812 9.179688 L 16.007812 7.457031 C 16.007812 6.832031 16.519531 6.328125 17.148438 6.328125 L 18.878906 6.328125 C 19.507812 6.328125 20.019531 6.832031 20.019531 7.457031 L 20.019531 9.179688 C 20.019531 9.804688 19.507812 10.3125 18.878906 10.3125 " fill-opacity="1" fill-rule="nonzero"/><g clip-path="url(#46a06bc8bf)"><path fill="#a6a6a6" d="M 21.398438 12.273438 L 20.546875 12.273438 C 20.234375 12.273438 19.984375 12.023438 19.984375 11.714844 L 19.984375 10.867188 C 19.984375 10.558594 20.234375 10.3125 20.546875 10.3125 L 21.398438 10.3125 C 21.710938 10.3125 21.960938 10.558594 21.960938 10.867188 L 21.960938 11.714844 C 21.960938 12.023438 21.710938 12.273438 21.398438 12.273438 " fill-opacity="1" fill-rule="nonzero"/></g><g clip-path="url(#22f56f248b)"><path fill="#a6a6a6" d="M 21.191406 6.417969 L 20.484375 6.417969 C 20.226562 6.417969 20.019531 6.210938 20.019531 5.953125 L 20.019531 5.25 C 20.019531 4.996094 20.226562 4.789062 20.484375 4.789062 L 21.191406 4.789062 C 21.449219 4.789062 21.65625 4.996094 21.65625 5.25 L 21.65625 5.953125 C 21.65625 6.210938 21.449219 6.417969 21.191406 6.417969 " fill-opacity="1" fill-rule="nonzero"/></g><g clip-path="url(#4745d797ee)"><path fill="#a6a6a6" d="M 14.4375 20.003906 C 14.4375 20.023438 14.414062 20.03125 14.398438 20.019531 L 12.039062 17.710938 C 12.035156 17.707031 12.035156 17.703125 12.035156 17.695312 L 12.035156 17.296875 C 12.03125 17.292969 12.027344 17.292969 12.027344 17.292969 L 12 15.667969 C 12 15.136719 11.839844 14.734375 11.515625 14.457031 C 11.191406 14.179688 10.714844 14.042969 10.082031 14.042969 C 9.589844 14.042969 9.160156 14.085938 8.785156 14.167969 C 8.726562 14.179688 8.667969 14.195312 8.609375 14.210938 C 8.601562 14.210938 8.59375 14.207031 8.589844 14.203125 L 7.078125 12.589844 C 7.070312 12.578125 7.074219 12.558594 7.085938 12.550781 C 7.542969 12.363281 8.015625 12.207031 8.511719 12.085938 C 9.046875 11.953125 9.691406 11.886719 10.449219 11.886719 C 11.839844 11.886719 12.851562 12.222656 13.484375 12.898438 C 14.121094 13.574219 14.4375 14.511719 14.4375 15.71875 Z M 14.4375 20.855469 C 14.4375 20.871094 14.425781 20.878906 14.414062 20.878906 L 12.007812 20.878906 C 11.992188 20.878906 11.984375 20.871094 11.984375 20.855469 L 11.984375 19.972656 C 11.984375 19.953125 11.957031 19.945312 11.945312 19.960938 C 11.640625 20.28125 11.28125 20.542969 10.863281 20.738281 C 10.429688 20.941406 9.902344 21.046875 9.28125 21.046875 C 8.855469 21.046875 8.457031 20.988281 8.085938 20.871094 C 7.710938 20.753906 7.386719 20.582031 7.109375 20.347656 C 6.832031 20.117188 6.609375 19.832031 6.449219 19.492188 C 6.289062 19.15625 6.207031 18.765625 6.207031 18.324219 L 6.207031 18.289062 C 6.207031 17.804688 6.296875 17.382812 6.472656 17.03125 C 6.652344 16.675781 6.898438 16.382812 7.21875 16.148438 C 7.535156 15.917969 7.914062 15.742188 8.351562 15.628906 C 8.359375 15.625 8.367188 15.625 8.375 15.621094 C 8.792969 15.515625 9.25 15.457031 9.75 15.453125 C 9.753906 15.453125 9.761719 15.457031 9.765625 15.460938 L 10.71875 16.421875 L 11.3125 17.015625 C 11.328125 17.03125 11.3125 17.058594 11.289062 17.054688 C 11.019531 16.992188 10.726562 16.964844 10.414062 16.964844 C 10.21875 16.964844 10.035156 16.976562 9.867188 17.003906 C 9.574219 17.054688 9.328125 17.144531 9.128906 17.277344 C 8.816406 17.488281 8.660156 17.792969 8.660156 18.191406 L 8.660156 18.222656 C 8.660156 18.566406 8.789062 18.832031 9.046875 19.019531 C 9.300781 19.207031 9.636719 19.304688 10.046875 19.304688 C 10.648438 19.304688 11.128906 19.160156 11.492188 18.871094 C 11.648438 18.746094 11.773438 18.601562 11.863281 18.4375 C 11.871094 18.425781 11.886719 18.425781 11.898438 18.433594 L 14.429688 20.210938 C 14.433594 20.214844 14.4375 20.222656 14.4375 20.230469 Z M 12.644531 9.277344 L 8.003906 9.277344 C 5.289062 9.277344 3.089844 11.460938 3.089844 14.160156 L 3.089844 18.773438 C 3.089844 21.46875 5.289062 23.65625 8.003906 23.65625 L 12.644531 23.65625 C 15.355469 23.65625 17.554688 21.46875 17.554688 18.773438 L 17.554688 14.160156 C 17.554688 11.460938 15.355469 9.277344 12.644531 9.277344 " fill-opacity="1" fill-rule="nonzero"/></g><g fill="#a6a6a6" fill-opacity="1"><g transform="translate(21.702903, 21.315301)"><g><path d="M 7.273438 0.0234375 L 7.742188 -0.0117188 L 7.976562 0.0117188 L 8.359375 0 L 8.703125 -0.0625 L 8.738281 -0.359375 L 8.652344 -0.640625 L 8.46875 -1.097656 L 8.136719 -1.738281 L 7.964844 -2.195312 L 7.714844 -2.636719 L 7.25 -3.757812 L 7.125 -3.945312 L 7 -4.179688 L 6.925781 -4.449219 L 6.816406 -4.636719 L 6.742188 -4.832031 L 6.484375 -5.289062 L 6.398438 -5.546875 L 5.585938 -7.261719 L 5.511719 -7.507812 L 5.375 -7.730469 L 5.300781 -7.949219 L 5.066406 -8.382812 L 4.855469 -8.605469 L 4.449219 -8.726562 L 4.054688 -8.589844 L 3.832031 -8.382812 L 3.722656 -8.171875 L 3.636719 -7.925781 L 3.527344 -7.753906 L 3.03125 -6.621094 L 2.898438 -6.433594 L 2.835938 -6.1875 L 2.699219 -5.953125 L 2.625 -5.730469 L 1.367188 -3.09375 L 1.292969 -2.824219 L 1.171875 -2.636719 L 1.085938 -2.390625 L 0.863281 -1.996094 L 0.679688 -1.503906 L 0.542969 -1.332031 L 0.480469 -1.109375 L 0.234375 -0.617188 L 0.160156 -0.371094 L 0.222656 -0.0625 L 0.46875 0.0117188 L 0.949219 -0.0117188 L 1.195312 0.0117188 L 1.886719 -0.0117188 L 2.167969 -0.0976562 L 2.402344 -0.320312 L 2.625 -0.726562 L 2.859375 -0.960938 L 3.117188 -1.097656 L 3.351562 -1.058594 L 3.871094 -1.109375 L 4.09375 -1.074219 L 5.300781 -1.085938 L 5.523438 -1.058594 L 5.792969 -1.097656 L 6.066406 -0.960938 L 6.300781 -0.765625 L 6.410156 -0.53125 L 6.484375 -0.308594 L 6.730469 -0.125 L 7.015625 0 Z M 4.476562 -3.042969 L 4.226562 -3.09375 L 3.945312 -3.070312 L 3.746094 -3.15625 L 3.734375 -3.390625 L 4.3125 -4.722656 L 4.449219 -4.832031 L 4.621094 -4.734375 L 5.203125 -3.378906 L 5.152344 -3.15625 L 4.96875 -3.058594 Z M 4.476562 -3.042969 "/></g></g></g><g fill="#a6a6a6" fill-opacity="1"><g transform="translate(30.651806, 21.315301)"><g><path d="M 7.273438 -0.210938 L 7.605469 -0.0117188 L 7.949219 0.0234375 L 8.222656 -0.0625 L 8.34375 -0.308594 L 8.371094 -4.808594 L 8.332031 -5.015625 L 8.332031 -6.238281 L 8.371094 -6.53125 L 8.332031 -8.246094 L 8.210938 -8.492188 L 7.964844 -8.628906 L 6.433594 -8.617188 L 6.199219 -8.480469 L 6.066406 -8.222656 L 6.050781 -7.964844 L 6.089844 -7.765625 L 6.050781 -7.25 L 6.078125 -6.976562 L 6.050781 -4.769531 L 5.976562 -4.5625 L 5.792969 -4.648438 L 4.917969 -5.523438 L 4.574219 -5.792969 L 2.144531 -8.246094 L 1.960938 -8.394531 L 1.675781 -8.542969 L 1.304688 -8.628906 L 1.023438 -8.503906 L 0.914062 -8.269531 L 0.914062 -4.535156 L 0.898438 -4.328125 L 0.925781 -3.820312 L 0.886719 -3.613281 L 0.914062 -1.589844 L 0.886719 -1.355469 L 0.914062 -0.320312 L 1.023438 -0.0859375 L 1.28125 0 L 1.789062 0.0234375 L 2.058594 0 L 2.539062 0.0351562 L 2.796875 0.0234375 L 3.042969 -0.0976562 L 3.167969 -0.480469 L 3.179688 -3.597656 L 3.203125 -3.847656 L 3.292969 -4.054688 L 3.453125 -3.992188 L 3.613281 -3.785156 L 4.488281 -2.945312 L 4.648438 -2.761719 L 4.855469 -2.625 L 6.765625 -0.726562 L 7.089844 -0.371094 Z M 7.273438 -0.210938 "/></g></g></g><g fill="#a6a6a6" fill-opacity="1"><g transform="translate(39.945844, 21.315301)"><g><path d="M 3.21875 0.0234375 L 4.042969 0 L 4.402344 -0.125 L 4.523438 -0.46875 L 4.5625 -1.109375 L 4.523438 -1.578125 L 4.546875 -1.835938 L 4.535156 -2.328125 L 4.5625 -2.550781 L 4.523438 -2.824219 L 4.546875 -4.808594 L 4.511719 -5.066406 L 4.546875 -6.140625 L 4.648438 -6.507812 L 4.882812 -6.65625 L 5.363281 -6.679688 L 5.816406 -6.621094 L 6.078125 -6.65625 L 6.300781 -6.644531 L 6.507812 -6.78125 L 6.65625 -7.050781 L 6.667969 -8.222656 L 6.53125 -8.46875 L 6.300781 -8.628906 L 5.535156 -8.628906 L 5.300781 -8.652344 L 5.042969 -8.617188 L 4.808594 -8.640625 L 3.808594 -8.589844 L 3.5625 -8.640625 L 3.328125 -8.652344 L 3.070312 -8.617188 L 2.796875 -8.640625 L 2.578125 -8.589844 L 1.847656 -8.628906 L 1.46875 -8.589844 L 0.605469 -8.640625 L 0.371094 -8.519531 L 0.222656 -8.234375 L 0.234375 -7.988281 L 0.210938 -7.371094 L 0.234375 -6.988281 L 0.34375 -6.765625 L 0.566406 -6.644531 L 0.8125 -6.667969 L 1.984375 -6.644531 L 2.21875 -6.519531 L 2.355469 -6.273438 L 2.328125 -5.878906 L 2.355469 -5.535156 L 2.34375 -5.261719 L 2.355469 -5.015625 L 2.328125 -4.671875 L 2.367188 -2.835938 L 2.34375 -2.589844 L 2.328125 -1.589844 L 2.355469 -1.332031 L 2.34375 -0.617188 L 2.316406 -0.382812 L 2.476562 -0.109375 L 2.835938 0.0117188 Z M 3.21875 0.0234375 "/></g></g></g><g fill="#a6a6a6" fill-opacity="1"><g transform="translate(46.836251, 21.315301)"><g><path d="M 4.941406 0.160156 L 6.039062 0.0507812 L 6.507812 -0.0976562 L 7.605469 -0.589844 L 8.46875 -1.417969 L 8.628906 -1.640625 L 9.109375 -2.488281 L 9.195312 -2.722656 L 9.234375 -2.972656 L 9.308594 -3.167969 L 9.355469 -3.4375 L 9.417969 -4.300781 L 9.355469 -5.152344 L 9.257812 -5.609375 L 9.160156 -5.867188 L 9.097656 -6.152344 L 8.875 -6.558594 L 8.789062 -6.78125 L 8.628906 -6.988281 L 8.480469 -7.136719 L 8.320312 -7.359375 L 7.789062 -7.839844 L 7.160156 -8.234375 L 5.546875 -8.738281 L 4.96875 -8.753906 L 4.105469 -8.703125 L 3.859375 -8.652344 L 3.613281 -8.578125 L 3.390625 -8.480469 L 2.921875 -8.359375 L 2.292969 -7.964844 L 2.121094 -7.816406 L 1.726562 -7.542969 L 1.394531 -7.175781 L 0.972656 -6.558594 L 0.863281 -6.347656 L 0.628906 -5.671875 L 0.53125 -5.140625 L 0.480469 -3.710938 L 0.617188 -2.933594 L 0.800781 -2.515625 L 0.875 -2.253906 L 1 -2.035156 L 1.578125 -1.246094 L 1.921875 -0.914062 L 2.082031 -0.726562 L 2.921875 -0.285156 L 3.15625 -0.183594 L 4.203125 0.125 Z M 4.597656 -2.007812 L 4.351562 -2.09375 L 4.128906 -2.121094 L 3.710938 -2.34375 L 3.328125 -2.675781 L 3.203125 -2.847656 L 3.042969 -3.019531 L 2.808594 -3.710938 L 2.75 -4.328125 L 2.761719 -4.695312 L 2.847656 -5.152344 L 2.921875 -5.375 L 3.070312 -5.546875 L 3.179688 -5.757812 L 3.339844 -5.953125 L 3.527344 -6.113281 L 3.882812 -6.359375 L 4.105469 -6.472656 L 4.363281 -6.53125 L 4.929688 -6.582031 L 5.523438 -6.546875 L 6.175781 -6.261719 L 6.558594 -5.976562 L 6.839844 -5.558594 L 6.941406 -5.335938 L 7.015625 -5.089844 L 7.101562 -4.867188 L 7.148438 -4.339844 L 7.074219 -3.722656 L 6.964844 -3.21875 L 6.828125 -3.03125 L 6.71875 -2.847656 L 6.570312 -2.625 L 6.1875 -2.328125 L 5.964844 -2.230469 L 5.769531 -2.121094 L 5.546875 -2.09375 L 5.3125 -2.035156 Z M 4.597656 -2.007812 "/></g></g></g><g fill="#a6a6a6" fill-opacity="1"><g transform="translate(56.721954, 21.315301)"><g><path d="M 0.898438 -0.359375 L 1.023438 -0.125 L 1.292969 0 L 2.15625 0.0351562 L 2.773438 -0.0117188 L 3.03125 -0.125 L 3.179688 -0.492188 L 3.144531 -0.886719 L 3.167969 -1.121094 L 3.15625 -2.429688 L 3.265625 -2.675781 L 3.511719 -2.785156 L 3.785156 -2.808594 L 4.042969 -2.761719 L 4.289062 -2.808594 L 4.535156 -2.785156 L 4.796875 -2.796875 L 5.042969 -2.773438 L 5.546875 -2.796875 L 5.804688 -2.921875 L 5.929688 -3.304688 L 5.917969 -4.402344 L 5.792969 -4.648438 L 5.535156 -4.746094 L 4.929688 -4.769531 L 4.277344 -4.722656 L 3.796875 -4.78125 L 3.527344 -4.769531 L 3.277344 -4.867188 L 3.144531 -5.128906 L 3.144531 -5.472656 L 3.167969 -5.707031 L 3.144531 -6.261719 L 3.265625 -6.507812 L 3.5 -6.667969 L 3.894531 -6.667969 L 4.253906 -6.644531 L 4.476562 -6.65625 L 4.722656 -6.644531 L 4.980469 -6.667969 L 5.917969 -6.644531 L 6.164062 -6.765625 L 6.285156 -7.015625 L 6.261719 -7.644531 L 6.285156 -8.109375 L 6.140625 -8.480469 L 5.929688 -8.617188 L 5.191406 -8.605469 L 4.917969 -8.640625 L 4.4375 -8.617188 L 4.214844 -8.640625 L 3.847656 -8.617188 L 3.597656 -8.628906 L 3.21875 -8.605469 L 2.738281 -8.605469 L 2.515625 -8.628906 L 1.886719 -8.628906 L 1.628906 -8.605469 L 1.28125 -8.617188 L 1.011719 -8.480469 L 0.9375 -8.257812 L 0.898438 -7.753906 L 0.9375 -7.382812 L 0.886719 -6.003906 L 0.914062 -5.792969 L 0.925781 -5.535156 L 0.898438 -5.3125 L 0.925781 -5.03125 L 0.898438 -4.808594 L 0.886719 -4.574219 L 0.914062 -4.339844 L 0.886719 -4.054688 Z M 0.898438 -0.359375 "/></g></g></g><g fill="#a6a6a6" fill-opacity="1"><g transform="translate(63.439794, 21.315301)"><g><path d="M 2.824219 -0.371094 L 2.921875 -0.0976562 L 3.179688 0 L 3.425781 0.0117188 L 3.648438 -0.0117188 L 4.03125 0.0117188 L 4.375 -0.0117188 L 4.621094 0.0117188 L 4.867188 -0.125 L 4.96875 -0.382812 L 5.003906 -1.8125 L 4.980469 -2.058594 L 4.980469 -2.304688 L 5.015625 -2.527344 L 5.003906 -3.242188 L 5.078125 -3.597656 L 5.203125 -3.917969 L 6.765625 -6.496094 L 6.914062 -6.667969 L 7.703125 -7.976562 L 7.839844 -8.285156 L 7.789062 -8.554688 L 7.570312 -8.605469 L 7.089844 -8.617188 L 6.828125 -8.589844 L 6.582031 -8.628906 L 6.101562 -8.617188 L 5.890625 -8.628906 L 5.558594 -8.503906 L 5.335938 -8.296875 L 5.015625 -7.765625 L 4.867188 -7.394531 L 4.597656 -7 L 4.476562 -6.742188 L 4.351562 -6.53125 L 4.140625 -6.066406 L 3.980469 -5.855469 L 3.847656 -5.855469 L 3.710938 -6.089844 L 3.574219 -6.285156 L 3.203125 -6.976562 L 3.070312 -7.1875 L 2.488281 -8.269531 L 2.230469 -8.503906 L 1.949219 -8.617188 L 1.6875 -8.605469 L 1.480469 -8.652344 L 0.851562 -8.605469 L 0.285156 -8.640625 L 0.0351562 -8.519531 L 0 -8.246094 L 0.125 -7.964844 L 0.652344 -7.089844 L 0.789062 -6.914062 L 1.292969 -6.039062 L 1.589844 -5.644531 L 1.6875 -5.421875 L 2.636719 -3.917969 L 2.761719 -3.574219 L 2.824219 -3.242188 L 2.808594 -2.269531 L 2.835938 -2.023438 L 2.808594 -1.074219 L 2.835938 -0.839844 Z M 2.824219 -0.371094 "/></g></g></g></svg>